<svg width="134" height="86" viewBox="0 0 134 86" fill="none" xmlns="http://www.w3.org/2000/svg">
<g clip-path="url(#clip0_95_792)">
<path d="M117.423 79.4037C121.732 75.0989 121.732 68.1194 117.423 63.8146C113.114 59.5097 106.127 59.5097 101.818 63.8146C97.5089 68.1194 97.5089 75.0989 101.818 79.4037C106.127 83.7085 113.114 83.7085 117.423 79.4037Z" fill="#2F2E41"/>
<path d="M109.56 72.6231C111.594 72.1734 112.878 70.162 112.427 68.1305C111.977 66.099 109.964 64.8167 107.93 65.2664C105.897 65.716 104.613 67.7274 105.063 69.759C105.513 71.7905 107.527 73.0728 109.56 72.6231Z" fill="white"/>
<path d="M107.49 69.198C108.167 69.0481 108.595 68.3776 108.445 67.7004C108.295 67.0232 107.624 66.5958 106.946 66.7457C106.268 66.8956 105.84 67.566 105.99 68.2432C106.14 68.9204 106.812 69.3478 107.49 69.198Z" fill="#3F3D56"/>
<path d="M109.185 64.157C104.672 64.1487 101.504 63.3434 101.512 59.2591C101.519 55.1748 105.184 51.8706 109.696 51.8789C114.209 51.8873 117.861 55.205 117.854 59.2893C117.846 63.3736 113.698 64.1653 109.185 64.157Z" fill="#FFA500"/>
<path d="M126.916 73.4519C125.621 77.9378 121.842 81.078 117.899 83.7456C117.349 84.1181 116.798 84.4821 116.247 84.8375C116.243 84.8391 116.24 84.8426 116.236 84.8443C116.209 84.8613 116.183 84.8783 116.158 84.8954C116.044 84.9686 115.931 85.0419 115.818 85.1143L115.88 85.1421C115.88 85.1421 115.941 85.1744 115.874 85.1472C115.854 85.139 115.833 85.1315 115.814 85.1232C113.523 84.2004 111.192 83.2096 109.437 81.4809C107.616 79.6857 106.552 76.8701 107.538 74.5118C107.668 74.2029 107.831 73.9094 108.026 73.6368C108.106 73.5224 108.192 73.413 108.282 73.3056C108.826 72.6425 109.537 72.1361 110.341 71.8385C111.146 71.5408 112.016 71.4626 112.861 71.612C113.706 71.7613 114.496 72.1328 115.149 72.6882C115.803 73.2436 116.297 73.9629 116.58 74.7722C116.869 72.0781 114.646 69.8214 112.505 68.1563C110.364 66.492 107.932 64.6796 107.518 62.0004C107.287 60.5098 107.806 59.0652 108.751 57.9056C108.78 57.8703 108.809 57.8351 108.839 57.8009C109.99 56.4502 111.608 55.5829 113.371 55.3722C116.654 55.0313 119.843 56.7673 122.228 59.0475C126.066 62.7163 128.387 68.3514 126.916 73.4519Z" fill="#E6E6E6"/>
<path d="M120.746 67.5842C121.376 68.5634 121.86 69.6292 122.182 70.748C122.454 71.7479 122.576 72.7829 122.542 73.8186C122.454 75.9498 121.855 78.0288 120.795 79.8807C119.997 81.2856 119.024 82.5841 117.9 83.7454C117.35 84.1179 116.799 84.4819 116.248 84.8373C116.244 84.8389 116.241 84.8424 116.237 84.844C116.21 84.8611 116.184 84.8781 116.159 84.8952C116.045 84.9684 115.932 85.0417 115.819 85.1141C115.819 85.1141 115.942 85.1742 115.875 85.147C115.855 85.1388 115.835 85.1313 115.815 85.123C116.02 83.4417 115.819 81.7358 115.228 80.1481C114.638 78.5605 113.675 77.1374 112.42 75.9981C111.163 74.8761 109.657 74.067 108.027 73.6366C108.107 73.5222 108.193 73.4128 108.283 73.3054C108.913 73.4818 109.525 73.7134 110.114 73.9976C112.219 75.0072 113.942 76.6669 115.029 78.7311C116.004 80.6054 116.424 82.7188 116.239 84.8231C116.333 84.7379 116.427 84.6508 116.519 84.5646C118.259 82.9437 119.805 81.083 120.851 78.9357C121.759 77.1173 122.205 75.1038 122.15 73.0725C122.065 70.8577 121.181 68.8062 119.902 67.0202C118.5 65.1149 116.844 63.4099 114.98 61.9528C113.102 60.4496 111.046 59.1817 108.859 58.1773C108.809 58.1543 108.771 58.1133 108.751 58.0627C108.731 58.012 108.731 57.9557 108.752 57.9054C108.767 57.8602 108.798 57.8225 108.841 57.8007C108.862 57.7913 108.886 57.787 108.909 57.788C108.933 57.789 108.956 57.7953 108.977 57.8065C109.247 57.9306 109.515 58.0565 109.781 58.1878C111.997 59.2818 114.068 60.6465 115.946 62.2505C117.761 63.7961 119.469 65.5619 120.746 67.5842Z" fill="white"/>
<path d="M18.8873 85.8845C20.4301 85.8845 21.6808 85.416 21.6808 84.838C21.6808 84.26 20.4301 83.7915 18.8873 83.7915C17.3445 83.7915 16.0938 84.26 16.0938 84.838C16.0938 85.416 17.3445 85.8845 18.8873 85.8845Z" fill="#2F2E41"/>
<path d="M25.5904 85.7451C27.1332 85.7451 28.384 85.2766 28.384 84.6986C28.384 84.1206 27.1332 83.6521 25.5904 83.6521C24.0476 83.6521 22.7969 84.1206 22.7969 84.6986C22.7969 85.2766 24.0476 85.7451 25.5904 85.7451Z" fill="#2F2E41"/>
<path d="M34.4924 68.1553C37.1322 66.635 38.8849 64.7314 38.4072 63.9036C37.9294 63.0757 35.4021 63.637 32.7623 65.1572C30.1224 66.6775 28.3697 68.581 28.8475 69.4089C29.3252 70.2368 31.8525 69.6755 34.4924 68.1553Z" fill="#2F2E41"/>
<path d="M32.0124 71.883C32.9886 65.8737 28.9035 60.2116 22.888 59.2364C16.8725 58.2613 11.2046 62.3422 10.2285 68.3516C9.25229 74.3609 13.3375 80.023 19.3529 80.9981C25.3684 81.9733 31.0362 77.8923 32.0124 71.883Z" fill="#2F2E41"/>
<path d="M19.446 78.7683H16.0938V84.7683H19.446V78.7683Z" fill="#2F2E41"/>
<path d="M26.1491 78.7683H22.7969V84.7683H26.1491V78.7683Z" fill="#2F2E41"/>
<path d="M21.4002 71.0939C23.483 71.0939 25.1715 69.4072 25.1715 67.3265C25.1715 65.2458 23.483 63.5591 21.4002 63.5591C19.3174 63.5591 17.6289 65.2458 17.6289 67.3265C17.6289 69.4072 19.3174 71.0939 21.4002 71.0939Z" fill="white"/>
<path d="M21.4016 68.5824C22.0959 68.5824 22.6587 68.0202 22.6587 67.3266C22.6587 66.633 22.0959 66.0708 21.4016 66.0708C20.7074 66.0708 20.1445 66.633 20.1445 67.3266C20.1445 68.0202 20.7074 68.5824 21.4016 68.5824Z" fill="#3F3D56"/>
<path d="M10.417 59.866C9.52606 55.8799 12.3742 51.852 16.7785 50.8696C21.1828 49.8871 25.4755 52.3221 26.3664 56.3083C27.2574 60.2944 24.3385 61.7646 19.9342 62.747C15.5299 63.7294 11.308 63.8522 10.417 59.866Z" fill="#E6E6E6"/>
<path d="M13.677 67.3643C14.0869 66.5009 12.1874 64.7435 9.43425 63.4391C6.68113 62.1346 4.11699 61.7771 3.70707 62.6405C3.29715 63.5039 5.19668 65.2613 7.94981 66.5657C10.7029 67.8702 13.2671 68.2277 13.677 67.3643Z" fill="#2F2E41"/>
<path d="M15.7012 74.094C15.7012 75.1729 18.4819 77.3033 21.5676 77.3033C24.6532 77.3033 27.5464 74.2659 27.5464 73.187C27.5464 72.1081 24.6532 73.3963 21.5676 73.3963C18.4819 73.3963 15.7012 73.0151 15.7012 74.094Z" fill="white"/>
<path d="M59.5982 85.8845C61.1411 85.8845 62.3918 85.416 62.3918 84.838C62.3918 84.26 61.1411 83.7915 59.5982 83.7915C58.0554 83.7915 56.8047 84.26 56.8047 84.838C56.8047 85.416 58.0554 85.8845 59.5982 85.8845Z" fill="#2F2E41"/>
<path d="M52.8931 85.7451C54.436 85.7451 55.6867 85.2766 55.6867 84.6986C55.6867 84.1206 54.436 83.6521 52.8931 83.6521C51.3503 83.6521 50.0996 84.1206 50.0996 84.6986C50.0996 85.2766 51.3503 85.7451 52.8931 85.7451Z" fill="#2F2E41"/>
<path d="M49.6377 69.4089C50.1154 68.5811 48.3627 66.6775 45.7228 65.1573C43.083 63.637 40.5557 63.0757 40.0779 63.9036C39.6002 64.7315 41.3529 66.635 43.9928 68.1553C46.6326 69.6755 49.1599 70.2368 49.6377 69.4089Z" fill="#2F2E41"/>
<path d="M57.3626 81.1404C63.4568 81.1404 68.3971 76.2051 68.3971 70.1172C68.3971 64.0292 63.4568 59.094 57.3626 59.094C51.2684 59.094 46.3281 64.0292 46.3281 70.1172C46.3281 76.2051 51.2684 81.1404 57.3626 81.1404Z" fill="#2F2E41"/>
<path d="M62.3913 78.7683H59.0391V84.7683H62.3913V78.7683Z" fill="#2F2E41"/>
<path d="M55.6862 78.7683H52.334V84.7683H55.6862V78.7683Z" fill="#2F2E41"/>
<path d="M54.7771 71.0939C56.8599 71.0939 58.5484 69.4072 58.5484 67.3265C58.5484 65.2458 56.8599 63.5591 54.7771 63.5591C52.6943 63.5591 51.0059 65.2458 51.0059 67.3265C51.0059 69.4072 52.6943 71.0939 54.7771 71.0939Z" fill="white"/>
<path d="M53.8685 67.6993C54.361 67.2077 54.3642 66.4131 53.8755 65.9245C53.3869 65.4359 52.5914 65.4383 52.0989 65.9299C51.6063 66.4215 51.6032 67.2162 52.0918 67.7047C52.5805 68.1933 53.3759 68.1909 53.8685 67.6993Z" fill="#3F3D56"/>
<path d="M58.5495 62.747C54.1451 61.7646 51.2263 60.2944 52.1172 56.3083C53.0082 52.3221 57.3009 49.8871 61.7052 50.8696C66.1095 51.852 68.9576 55.8799 68.0666 59.866C67.1757 63.8522 62.9538 63.7294 58.5495 62.747Z" fill="#FFA500"/>
<path d="M68.9011 78.5197C69.8256 78.2744 69.941 75.6906 69.1588 72.7486C68.3766 69.8067 66.993 67.6206 66.0685 67.8659C65.144 68.1112 65.0286 70.695 65.8108 73.637C66.593 76.5789 67.9766 78.765 68.9011 78.5197Z" fill="#2F2E41"/>
<path d="M54.8627 73.3966C52.8369 73.3966 50.9375 72.1084 50.9375 73.1873C50.9375 74.2661 52.8369 77.3035 54.8627 77.3035C56.8885 77.3035 58.7142 75.1731 58.7142 74.0942C58.7142 73.0153 56.8885 73.3966 54.8627 73.3966Z" fill="white"/>
<path d="M40.6027 51.8405H39.6228C38.7449 51.8395 37.9033 51.4907 37.2826 50.8706C36.6619 50.2505 36.3127 49.4098 36.3117 48.5328V47.711C36.3117 45.6753 36.6978 43.9709 37.4593 42.645C38.3822 41.1028 39.4588 39.6577 40.6728 38.3318C41.4787 37.5222 42.21 36.6417 42.8577 35.701C43.3225 34.9701 43.5624 34.1191 43.5478 33.2534C43.5478 31.2114 42.2161 30.2187 39.4764 30.2187C37.9567 30.2359 36.4466 30.4623 34.9888 30.8916C34.4266 31.0519 33.8348 31.0797 33.26 30.9727C32.6852 30.8658 32.1432 30.6271 31.6764 30.2753C31.2097 29.9235 30.8311 29.4683 30.5703 28.9456C30.3096 28.4228 30.1739 27.8467 30.1739 27.2626V25.599C30.1706 24.8828 30.3755 24.181 30.7635 23.5788C31.1515 22.9765 31.7061 22.4997 32.3599 22.206C34.9346 21.1083 37.7111 20.5627 40.5101 20.6043C43.4423 20.6043 46.0893 21.0963 48.3777 22.0665C50.6702 23.0389 52.4815 24.4102 53.7611 26.1422C55.0368 27.862 55.7148 29.9512 55.6919 32.0916C55.6919 34.3901 55.0638 36.3919 53.825 38.0416C52.5997 39.6746 50.8433 41.4623 48.6044 43.3553C47.4247 44.3353 46.3069 45.3873 45.2573 46.5052C44.5794 47.2347 44.1002 48.1258 43.8658 49.0932C43.7352 49.8628 43.3356 50.5611 42.7381 51.0641C42.1407 51.5671 41.384 51.8422 40.6027 51.8405Z" fill="#FFA500"/>
<path d="M40.0588 67.395H39.9295C38.3027 67.3939 36.7428 66.7476 35.5929 65.5981C34.4429 64.4485 33.7969 62.8898 33.7969 61.2646C33.7969 59.6395 34.4429 58.0808 35.5929 56.9312C36.7428 55.7817 38.3027 55.1353 39.9295 55.1343H40.0588C40.865 55.1338 41.6634 55.2919 42.4084 55.5998C43.1534 55.9076 43.8303 56.3591 44.4006 56.9284C44.9708 57.4977 45.4232 58.1737 45.7319 58.9177C46.0405 59.6618 46.1994 60.4593 46.1994 61.2646C46.1994 62.07 46.0405 62.8675 45.7319 63.6115C45.4232 64.3556 44.9708 65.0316 44.4006 65.6009C43.8303 66.1702 43.1534 66.6216 42.4084 66.9295C41.6634 67.2373 40.865 67.3955 40.0588 67.395Z" fill="#FFA500"/>
<path d="M107.346 78.5237C110.392 78.4642 112.847 77.6414 112.828 76.686C112.809 75.7306 110.324 75.0043 107.278 75.0639C104.231 75.1234 101.777 75.9461 101.796 76.9016C101.814 77.857 104.299 78.5832 107.346 78.5237Z" fill="#2F2E41"/>
<path d="M104.577 38.1369H97.9158C97.5762 38.1365 97.2506 38.0015 97.0104 37.7616C96.7702 37.5217 96.6352 37.1964 96.6348 36.8571V30.2024C96.6352 29.8631 96.7702 29.5378 97.0104 29.2979C97.2506 29.058 97.5762 28.923 97.9158 28.9226H104.577C104.917 28.923 105.243 29.058 105.483 29.2979C105.723 29.5378 105.858 29.8631 105.858 30.2024V36.8571C105.858 37.1964 105.723 37.5217 105.483 37.7616C105.243 38.0015 104.917 38.1365 104.577 38.1369ZM97.9158 29.4345C97.712 29.4347 97.5167 29.5157 97.3726 29.6597C97.2285 29.8036 97.1474 29.9988 97.1472 30.2024V36.8571C97.1474 37.0607 97.2285 37.2559 97.3726 37.3998C97.5167 37.5438 97.712 37.6248 97.9158 37.625H104.577C104.781 37.6248 104.977 37.5438 105.121 37.3998C105.265 37.2559 105.346 37.0607 105.346 36.8571V30.2024C105.346 29.9988 105.265 29.8036 105.121 29.6597C104.977 29.5157 104.781 29.4347 104.577 29.4345H97.9158Z" fill="#FFA500"/>
<path d="M107.652 33.7858H100.99C100.65 33.7854 100.325 33.6505 100.085 33.4106C99.8445 33.1706 99.7094 32.8454 99.709 32.5061V25.8513C99.7094 25.512 99.8445 25.1867 100.085 24.9468C100.325 24.7069 100.65 24.5719 100.99 24.5715H107.652C107.991 24.5719 108.317 24.7069 108.557 24.9468C108.797 25.1867 108.932 25.512 108.933 25.8513V32.5061C108.932 32.8454 108.797 33.1706 108.557 33.4106C108.317 33.6505 107.991 33.7854 107.652 33.7858ZM100.99 25.0834C100.786 25.0837 100.591 25.1646 100.447 25.3086C100.303 25.4525 100.222 25.6477 100.221 25.8513V32.5061C100.222 32.7096 100.303 32.9048 100.447 33.0488C100.591 33.1927 100.786 33.2737 100.99 33.2739H107.652C107.855 33.2737 108.051 33.1927 108.195 33.0488C108.339 32.9048 108.42 32.7096 108.42 32.5061V25.8513C108.42 25.6477 108.339 25.4525 108.195 25.3086C108.051 25.1646 107.855 25.0837 107.652 25.0834H100.99Z" fill="#FFA500"/>
<path d="M71.3118 24.5817H64.6502C64.3106 24.5813 63.9849 24.4464 63.7448 24.2065C63.5046 23.9665 63.3695 23.6413 63.3691 23.302V16.6472C63.3695 16.3079 63.5046 15.9826 63.7448 15.7427C63.9849 15.5028 64.3106 15.3678 64.6502 15.3674H71.3118C71.6514 15.3678 71.977 15.5028 72.2172 15.7427C72.4574 15.9826 72.5925 16.3079 72.5928 16.6472V23.302C72.5925 23.6413 72.4574 23.9665 72.2172 24.2065C71.977 24.4464 71.6514 24.5813 71.3118 24.5817ZM64.6502 15.8793C64.4464 15.8796 64.251 15.9605 64.1069 16.1045C63.9628 16.2484 63.8818 16.4436 63.8816 16.6472V23.302C63.8818 23.5055 63.9628 23.7007 64.1069 23.8447C64.251 23.9886 64.4464 24.0696 64.6502 24.0698H71.3118C71.5156 24.0696 71.7109 23.9886 71.855 23.8447C71.9991 23.7007 72.0802 23.5055 72.0804 23.302V16.6472C72.0802 16.4436 71.9991 16.2484 71.855 16.1045C71.7109 15.9605 71.5156 15.8796 71.3118 15.8793H64.6502Z" fill="#FFA500"/>
<path d="M67.2122 21.2543H60.5506C60.211 21.2539 59.8853 21.119 59.6452 20.8791C59.405 20.6391 59.2699 20.3139 59.2695 19.9746V13.3198C59.2699 12.9805 59.405 12.6552 59.6452 12.4153C59.8853 12.1754 60.211 12.0404 60.5506 12.04H67.2122C67.5518 12.0404 67.8774 12.1754 68.1176 12.4153C68.3578 12.6552 68.4929 12.9805 68.4932 13.3198V19.9746C68.4929 20.3139 68.3578 20.6391 68.1176 20.8791C67.8774 21.119 67.5518 21.2539 67.2122 21.2543ZM60.5506 12.5519C60.3468 12.5522 60.1514 12.6331 60.0073 12.7771C59.8632 12.921 59.7822 13.1162 59.782 13.3198V19.9746C59.7822 20.1781 59.8632 20.3733 60.0073 20.5173C60.1514 20.6612 60.3468 20.7422 60.5506 20.7424H67.2122C67.416 20.7422 67.6113 20.6612 67.7554 20.5173C67.8995 20.3733 67.9806 20.1781 67.9808 19.9746V13.3198C67.9806 13.1162 67.8995 12.921 67.7554 12.7771C67.6113 12.6331 67.416 12.5522 67.2122 12.5519H60.5506Z" fill="#FFA500"/>
<path d="M82.3014 48.538C83.2165 48.538 83.9583 47.7969 83.9583 46.8828C83.9583 45.9686 83.2165 45.2275 82.3014 45.2275C81.3864 45.2275 80.6445 45.9686 80.6445 46.8828C80.6445 47.7969 81.3864 48.538 82.3014 48.538Z" fill="#FFA500"/>
<path d="M15.6862 42.6513C16.6013 42.6513 17.3431 41.9102 17.3431 40.996C17.3431 40.0819 16.6013 39.3408 15.6862 39.3408C14.7711 39.3408 14.0293 40.0819 14.0293 40.996C14.0293 41.9102 14.7711 42.6513 15.6862 42.6513Z" fill="#FFA500"/>
<path d="M127.395 56.9845C128.31 56.9845 129.052 56.2434 129.052 55.3293C129.052 54.4151 128.31 53.6741 127.395 53.6741C126.48 53.6741 125.738 54.4151 125.738 55.3293C125.738 56.2434 126.48 56.9845 127.395 56.9845Z" fill="#FFA500"/>
</g>
<defs>
<clipPath id="clip0_95_792">
<rect width="134" height="86" fill="white"/>
</clipPath>
</defs>
</svg>
