<svg width="86" height="80" viewBox="0 0 86 80" fill="none" xmlns="http://www.w3.org/2000/svg">
<g clip-path="url(#clip0_95_760)">
<path d="M40.5451 0.66778L37.9135 2.09843L5.49181 19.7243L2.86022 21.155C1.5833 21.851 0.635616 23.0234 0.225096 24.4147C-0.185425 25.8061 -0.02526 27.3029 0.670452 28.5768L24.8141 72.6664C25.5127 73.9387 26.6893 74.8829 28.0857 75.292C29.4822 75.701 30.9844 75.5414 32.2629 74.8482L32.2697 74.8445L69.941 54.3647L69.9478 54.361C71.2247 53.665 72.1724 52.4926 72.5829 51.1013C72.9934 49.7099 72.8333 48.2131 72.1376 46.9392L47.9939 2.84964C47.2953 1.57733 46.1187 0.633084 44.7223 0.224047C43.3259 -0.18499 41.8236 -0.0254087 40.5451 0.66778Z" fill="#FFA500"/>
<path d="M41.3024 2.04975L38.1855 3.74425L6.73437 20.8425L3.61748 22.537C2.70815 23.0327 2.03328 23.8675 1.74094 24.8583C1.44859 25.8492 1.56265 26.9151 2.05809 27.8222L26.2018 71.9118C26.6992 72.8178 27.5371 73.4902 28.5315 73.7815C29.526 74.0728 30.5958 73.9592 31.5062 73.4655L31.513 73.4618L69.1843 52.982L69.1911 52.9783C70.1005 52.4826 70.7753 51.6478 71.0676 50.657C71.36 49.6661 71.2459 48.6002 70.7505 47.6931L46.6068 3.60352C46.1093 2.69749 45.2715 2.02506 44.2771 1.73378C43.2826 1.44249 42.2128 1.55612 41.3024 2.04975Z" fill="white"/>
<path d="M41.822 15.7352L27.772 23.3734C27.5592 23.4891 27.3089 23.5158 27.0763 23.4477C26.8437 23.3796 26.6477 23.2221 26.5316 23.0101C26.4155 22.798 26.3887 22.5486 26.457 22.3168C26.5254 22.0851 26.6834 21.8898 26.8963 21.7741L40.9462 14.1359C41.1591 14.0202 41.4093 13.9935 41.6419 14.0616C41.8746 14.1298 42.0705 14.2872 42.1866 14.4993C42.3028 14.7114 42.3296 14.9607 42.2612 15.1925C42.1928 15.4243 42.0348 15.6195 41.822 15.7352Z" fill="#2F3948"/>
<path d="M46.609 16.6341L29.2486 26.072C29.0358 26.1878 28.7855 26.2145 28.5529 26.1464C28.3202 26.0782 28.1243 25.9208 28.0082 25.7087C27.892 25.4966 27.8652 25.2473 27.9336 25.0155C28.002 24.7837 28.16 24.5885 28.3728 24.4728L45.7333 15.0349C45.8386 14.9776 45.9543 14.9415 46.0737 14.9288C46.1931 14.916 46.3138 14.9268 46.429 14.9606C46.5442 14.9943 46.6516 15.0503 46.745 15.1254C46.8385 15.2005 46.9162 15.2932 46.9737 15.3982C47.0312 15.5032 47.0674 15.6185 47.0802 15.7374C47.093 15.8564 47.0821 15.9767 47.0482 16.0914C47.0144 16.2062 46.9582 16.3132 46.8828 16.4063C46.8074 16.4994 46.7144 16.5768 46.609 16.6341Z" fill="#8F8F8F"/>
<path d="M21.9959 20.1939L9.04265 27.2359C8.94069 27.2913 8.865 27.3849 8.83224 27.4959C8.79948 27.607 8.81232 27.7265 8.86794 27.8281L14.3838 37.9007C14.4394 38.0023 14.5333 38.0777 14.6447 38.1103C14.7562 38.143 14.8761 38.1302 14.9781 38.0748L27.9313 31.0328C28.0333 30.9774 28.109 30.8838 28.1417 30.7728C28.1745 30.6617 28.1617 30.5422 28.106 30.4406L22.5902 20.368C22.5346 20.2664 22.4407 20.191 22.3292 20.1584C22.2178 20.1257 22.0979 20.1385 21.9959 20.1939Z" fill="#FFA500"/>
<path d="M48.7919 28.5157L29.7349 38.876C29.6295 38.9333 29.5139 38.9693 29.3945 38.9821C29.2751 38.9948 29.1544 38.984 29.0392 38.9503C28.924 38.9165 28.8166 38.8605 28.7232 38.7854C28.6297 38.7103 28.552 38.6176 28.4945 38.5126C28.437 38.4076 28.4008 38.2924 28.388 38.1734C28.3752 38.0545 28.3861 37.9342 28.4199 37.8194C28.4538 37.7047 28.51 37.5977 28.5854 37.5045C28.6607 37.4114 28.7538 37.334 28.8592 37.2767L47.9161 26.9165C48.129 26.8007 48.3793 26.774 48.6119 26.8422C48.8445 26.9103 49.0404 27.0677 49.1566 27.2798C49.2727 27.4919 49.2995 27.7412 49.2311 27.973C49.1628 28.2048 49.0048 28.4 48.7919 28.5157Z" fill="#2F3948"/>
<path d="M53.5809 29.4147L31.2134 41.5746C31.0006 41.6903 30.7503 41.7171 30.5177 41.6489C30.2851 41.5808 30.0892 41.4234 29.973 41.2113C29.8569 40.9992 29.8301 40.7499 29.8984 40.5181C29.9668 40.2863 30.1248 40.0911 30.3377 39.9754L52.7052 27.8154C52.918 27.6997 53.1683 27.6729 53.4009 27.7411C53.6335 27.8092 53.8294 27.9666 53.9456 28.1787C54.0617 28.3908 54.0885 28.6402 54.0202 28.8719C53.9518 29.1037 53.7938 29.2989 53.5809 29.4147Z" fill="#8F8F8F"/>
<path d="M22.4782 47.3605C24.6203 47.3605 26.3569 45.6303 26.3569 43.4959C26.3569 41.3616 24.6203 39.6313 22.4782 39.6313C20.3361 39.6313 18.5996 41.3616 18.5996 43.4959C18.5996 45.6303 20.3361 47.3605 22.4782 47.3605Z" fill="#8F8F8F"/>
<path d="M80.5092 18.8345H37.5798C36.1243 18.8361 34.7288 19.4129 33.6996 20.4384C32.6704 21.4639 32.0915 22.8543 32.0898 24.3046V74.53C32.0915 75.9802 32.6704 77.3706 33.6996 78.3961C34.7288 79.4216 36.1243 79.9984 37.5798 80.0001H80.5092C81.9647 79.9984 83.3602 79.4216 84.3894 78.3961C85.4186 77.3706 85.9975 75.9802 85.9992 74.53V24.3046C85.9975 22.8543 85.4186 21.4639 84.3894 20.4384C83.3602 19.4129 81.9647 18.8361 80.5092 18.8345Z" fill="#FFA500"/>
<path d="M80.5109 20.4092H37.5814C36.5449 20.4103 35.5512 20.8211 34.8182 21.5514C34.0853 22.2817 33.673 23.2718 33.6719 24.3046V74.53C33.673 75.5627 34.0853 76.5529 34.8182 77.2831C35.5512 78.0134 36.5449 78.4242 37.5814 78.4253H80.5109C81.5474 78.4242 82.5411 78.0134 83.274 77.2831C84.0069 76.5528 84.4192 75.5627 84.4203 74.53V24.3046C84.4192 23.2718 84.0069 22.2817 83.274 21.5514C82.5411 20.8211 81.5474 20.4103 80.5109 20.4092Z" fill="white"/>
<path d="M74.3882 32.6707H58.383C58.1405 32.6707 57.908 32.5747 57.7365 32.4039C57.5651 32.2331 57.4688 32.0014 57.4688 31.7598C57.4688 31.5182 57.5651 31.2865 57.7365 31.1157C57.908 30.9448 58.1405 30.8489 58.383 30.8489H74.3882C74.5084 30.8487 74.6274 30.8722 74.7384 30.9179C74.8494 30.9636 74.9503 31.0307 75.0353 31.1153C75.1203 31.1999 75.1878 31.3004 75.2338 31.411C75.2798 31.5215 75.3035 31.6401 75.3035 31.7598C75.3035 31.8795 75.2798 31.998 75.2338 32.1086C75.1878 32.2192 75.1203 32.3197 75.0353 32.4043C74.9503 32.4889 74.8494 32.5559 74.7384 32.6017C74.6274 32.6474 74.5084 32.6708 74.3882 32.6707Z" fill="#2F3948"/>
<path d="M78.1594 35.7449H58.383C58.1405 35.7449 57.908 35.649 57.7365 35.4781C57.5651 35.3073 57.4688 35.0756 57.4688 34.834C57.4688 34.5924 57.5651 34.3607 57.7365 34.1899C57.908 34.0191 58.1405 33.9231 58.383 33.9231H78.1594C78.4019 33.9231 78.6344 34.0191 78.8059 34.1899C78.9773 34.3607 79.0736 34.5924 79.0736 34.834C79.0736 35.0756 78.9773 35.3073 78.8059 35.4781C78.6344 35.649 78.4019 35.7449 78.1594 35.7449Z" fill="#8F8F8F"/>
<path d="M44.132 34.1691C44.1381 35.1377 43.7798 36.0735 43.1277 36.792C42.4825 37.4975 41.5219 37.9654 40.5526 37.7718C39.66 37.5936 38.9347 36.8163 39.0252 35.876C39.0402 35.6723 39.0996 35.4743 39.1993 35.2959C39.299 35.1174 39.4365 34.9628 39.6023 34.8427C39.7681 34.7227 39.9582 34.6401 40.1593 34.6007C40.3604 34.5614 40.5678 34.5662 40.7668 34.6149C41.6147 34.8341 41.9526 36.0517 41.246 36.6232C41.0765 36.7603 40.8329 36.5205 41.004 36.3821C41.4711 36.0043 41.3268 35.1777 40.763 34.9705C40.1067 34.7291 39.4112 35.2482 39.364 35.9168C39.3081 36.7095 39.9176 37.3065 40.665 37.447C41.4736 37.5991 42.2752 37.1868 42.8231 36.6176C43.451 35.9567 43.7975 35.0791 43.7898 34.1691C43.7913 34.1249 43.81 34.083 43.842 34.0523C43.8739 34.0216 43.9165 34.0044 43.9609 34.0044C44.0053 34.0044 44.048 34.0216 44.0799 34.0523C44.1118 34.083 44.1305 34.1249 44.132 34.1691Z" fill="#2F2E41"/>
<path d="M47.4745 36.3368C50.8463 36.3368 53.5798 33.6133 53.5798 30.2536C53.5798 26.894 50.8463 24.1704 47.4745 24.1704C44.1026 24.1704 41.3691 26.894 41.3691 30.2536C41.3691 33.6133 44.1026 36.3368 47.4745 36.3368Z" fill="#FFA500"/>
<path d="M47.1606 32.8494L47.1543 32.6221C47.5787 32.6103 47.953 32.5838 48.2341 32.3791C48.3138 32.3178 48.3794 32.24 48.4263 32.1512C48.4731 32.0624 48.5003 31.9646 48.5058 31.8644C48.5107 31.8032 48.5014 31.7416 48.4786 31.6846C48.4558 31.6275 48.4201 31.5765 48.3743 31.5354C48.1876 31.3783 47.8873 31.4292 47.6684 31.5292L47.4796 31.6154L47.8416 28.9795L48.0676 29.0104L47.7597 31.2526C48.0572 31.1654 48.3328 31.2029 48.5216 31.3618C48.594 31.4248 48.6509 31.5037 48.6877 31.5923C48.7245 31.6809 48.7403 31.7767 48.7338 31.8724C48.7271 32.007 48.691 32.1385 48.6279 32.2578C48.5649 32.377 48.4764 32.4811 48.3687 32.5627C48.0074 32.8258 47.5379 32.8389 47.1606 32.8494Z" fill="#2F2E41"/>
<path d="M50.4143 29.2036H49.1855V29.4309H50.4143V29.2036Z" fill="#2F2E41"/>
<path d="M46.5374 29.2036H45.3086V29.4309H46.5374V29.2036Z" fill="#2F2E41"/>
<path d="M44.0918 39.4704C44.5494 39.1811 45.044 38.9544 45.5623 38.7964C45.5128 38.6212 45.5136 38.4358 45.5645 38.261C45.6333 38.0403 45.7719 37.8476 45.9596 37.7118C46.1473 37.576 46.3741 37.5043 46.6061 37.5074H48.0936C48.326 37.5045 48.5531 37.5763 48.7412 37.7123C48.9292 37.8483 49.0682 38.0411 49.1375 38.2622C49.1884 38.4365 49.1892 38.6216 49.1397 38.7964C49.6579 38.9546 50.1525 39.1813 50.6102 39.4704H44.0918Z" fill="#2F2E41"/>
<path d="M54.4667 27.996C54.3554 27.8617 54.2186 27.7509 54.064 27.6697C53.9284 27.5992 53.7778 27.5622 53.6248 27.5618C53.4147 27.5643 53.2108 27.6327 53.0419 27.7573C52.5775 28.0846 52.2559 28.7905 52.2559 29.6077C52.2559 30.633 52.7624 31.4832 53.4206 31.6309C53.4876 31.6459 53.5561 31.6535 53.6248 31.6537C54.3788 31.6537 54.9937 30.7364 54.9937 29.6077C54.9937 28.953 54.7872 28.3699 54.4667 27.996Z" fill="#3F3D56"/>
<path d="M41.9285 27.7084H41.9274C41.7749 27.614 41.5992 27.5633 41.4197 27.5618C41.2667 27.5622 41.1161 27.5992 40.9805 27.6697C40.8259 27.7509 40.6891 27.8617 40.5778 27.996L40.5767 27.9971C40.2573 28.3711 40.0508 28.9542 40.0508 29.6077C40.0508 30.4898 40.4249 31.2422 40.9497 31.5298C41.0933 31.61 41.255 31.6526 41.4197 31.6537C41.4563 31.6537 41.4929 31.6514 41.5292 31.6469H41.5303C42.2331 31.5627 42.7886 30.6807 42.7886 29.6077C42.7886 28.7484 42.4316 28.0107 41.9285 27.7084Z" fill="#3F3D56"/>
<path d="M41.0343 31.3343C41.0615 31.3343 41.0882 31.3278 41.1124 31.3154C41.1366 31.3031 41.1574 31.2852 41.1733 31.2632C41.1891 31.2412 41.1995 31.2158 41.2035 31.189C41.2075 31.1622 41.2051 31.1349 41.1965 31.1092C40.8694 30.1402 40.771 29.1091 40.909 28.0961C41.0469 27.083 41.4174 26.1153 41.9917 25.2681C42.566 24.421 43.3287 23.7171 44.2204 23.2114C45.1121 22.7056 46.1088 22.4115 47.1331 22.352C48.1574 22.2924 49.1817 22.469 50.1263 22.868C51.071 23.2671 51.9106 23.8777 52.5799 24.6526C53.2492 25.4275 53.7302 26.3457 53.9854 27.3359C54.2406 28.3261 54.2632 29.3616 54.0515 30.3619C54.0422 30.4062 54.0508 30.4523 54.0756 30.4902C54.1004 30.5281 54.1392 30.5546 54.1837 30.5639C54.2281 30.5733 54.2744 30.5647 54.3124 30.54C54.3504 30.5153 54.377 30.4765 54.3864 30.4323C54.6091 29.3806 54.5855 28.2918 54.3172 27.2507C54.049 26.2096 53.5433 25.2441 52.8397 24.4294C52.136 23.6146 51.2533 22.9725 50.2601 22.553C49.2668 22.1335 48.1899 21.9478 47.1129 22.0104C46.036 22.073 44.988 22.3823 44.0505 22.9141C43.113 23.4459 42.3112 24.186 41.7075 25.0768C41.1037 25.9676 40.7143 26.9851 40.5694 28.0502C40.4245 29.1154 40.5281 30.1995 40.8722 31.2182C40.8836 31.2521 40.9054 31.2814 40.9345 31.3022C40.9636 31.3231 40.9985 31.3343 41.0343 31.3343Z" fill="#3F3D56"/>
<path d="M50.5411 26.3122C50.7828 26.641 50.6637 27.0841 50.409 27.3676C50.0775 27.7365 49.5489 27.7598 49.09 27.6913C48.575 27.6145 48.0288 27.3741 47.5074 27.5361C47.063 27.6742 46.7461 28.0758 46.2844 28.1766C45.875 28.2661 45.3854 28.1477 45.2418 27.7129C45.1729 27.5039 45.5032 27.4144 45.5718 27.6222C45.6647 27.9035 46.0656 27.8979 46.2953 27.82C46.6634 27.6951 46.9471 27.3914 47.3089 27.2463C47.7355 27.0752 48.1983 27.1524 48.6326 27.2499C49.0419 27.3417 49.513 27.4779 49.9208 27.3063C50.2225 27.1794 50.4626 26.7795 50.2456 26.4843C50.1153 26.3071 50.4121 26.1368 50.5411 26.3122Z" fill="#2F2E41"/>
<path d="M74.3636 47.2166H52.6545C52.5344 47.2166 52.4155 47.193 52.3046 47.1473C52.1937 47.1015 52.0929 47.0344 52.008 46.9498C51.9231 46.8652 51.8558 46.7648 51.8098 46.6543C51.7639 46.5438 51.7402 46.4253 51.7402 46.3057C51.7402 46.1861 51.7639 46.0676 51.8098 45.9571C51.8558 45.8466 51.9231 45.7462 52.008 45.6616C52.0929 45.577 52.1937 45.5099 52.3046 45.4641C52.4155 45.4183 52.5344 45.3948 52.6545 45.3948H74.3636C74.6059 45.395 74.8381 45.4911 75.0094 45.6619C75.1806 45.8327 75.2768 46.0643 75.2768 46.3057C75.2768 46.5471 75.1806 46.7786 75.0094 46.9494C74.8381 47.1202 74.6059 47.2163 74.3636 47.2166Z" fill="#2F3948"/>
<path d="M78.1338 50.2911H52.6535C52.5334 50.2912 52.4144 50.2677 52.3034 50.222C52.1923 50.1763 52.0914 50.1092 52.0064 50.0246C51.9214 49.94 51.854 49.8396 51.808 49.729C51.762 49.6184 51.7383 49.4999 51.7383 49.3802C51.7383 49.2604 51.762 49.1419 51.808 49.0313C51.854 48.9207 51.9214 48.8203 52.0064 48.7357C52.0914 48.6511 52.1923 48.584 52.3034 48.5383C52.4144 48.4926 52.5334 48.4691 52.6535 48.4692H78.1338C78.254 48.4691 78.373 48.4926 78.484 48.5383C78.595 48.584 78.6959 48.6511 78.781 48.7357C78.866 48.8203 78.9334 48.9207 78.9794 49.0313C79.0254 49.1419 79.0491 49.2604 79.0491 49.3802C79.0491 49.4999 79.0254 49.6184 78.9794 49.729C78.9334 49.8396 78.866 49.94 78.781 50.0246C78.6959 50.1092 78.595 50.1763 78.484 50.222C78.373 50.2677 78.254 50.2912 78.1338 50.2911Z" fill="#8F8F8F"/>
<path d="M74.3636 58.2664H52.6545C52.412 58.2664 52.1795 58.1704 52.008 57.9996C51.8366 57.8288 51.7402 57.5971 51.7402 57.3555C51.7402 57.1139 51.8366 56.8822 52.008 56.7114C52.1795 56.5406 52.412 56.4446 52.6545 56.4446H74.3636C74.606 56.4446 74.8386 56.5406 75.01 56.7114C75.1815 56.8822 75.2778 57.1139 75.2778 57.3555C75.2778 57.5971 75.1815 57.8288 75.01 57.9996C74.8386 58.1704 74.606 58.2664 74.3636 58.2664Z" fill="#FFA500"/>
<path d="M78.1348 61.3406H52.6545C52.412 61.3406 52.1795 61.2447 52.008 61.0738C51.8366 60.903 51.7402 60.6713 51.7402 60.4297C51.7402 60.1881 51.8366 59.9564 52.008 59.7856C52.1795 59.6148 52.412 59.5188 52.6545 59.5188H78.1348C78.3772 59.5188 78.6098 59.6148 78.7812 59.7856C78.9527 59.9564 79.049 60.1881 79.049 60.4297C79.049 60.6713 78.9527 60.903 78.7812 61.0738C78.6098 61.2447 78.3772 61.3406 78.1348 61.3406Z" fill="#FFA500"/>
<path d="M44.0622 51.6733C46.2043 51.6733 47.9409 49.943 47.9409 47.8087C47.9409 45.6743 46.2043 43.9441 44.0622 43.9441C41.9201 43.9441 40.1836 45.6743 40.1836 47.8087C40.1836 49.943 41.9201 51.6733 44.0622 51.6733Z" fill="#8F8F8F"/>
<path d="M44.0622 62.8124C46.2043 62.8124 47.9409 61.0822 47.9409 58.9478C47.9409 56.8135 46.2043 55.0833 44.0622 55.0833C41.9201 55.0833 40.1836 56.8135 40.1836 58.9478C40.1836 61.0822 41.9201 62.8124 44.0622 62.8124Z" fill="#FFA500"/>
<path d="M74.3636 69.4056H52.6545C52.412 69.4056 52.1795 69.3096 52.008 69.1388C51.8366 68.9679 51.7402 68.7363 51.7402 68.4947C51.7402 68.2531 51.8366 68.0214 52.008 67.8505C52.1795 67.6797 52.412 67.5837 52.6545 67.5837H74.3636C74.606 67.5837 74.8386 67.6797 75.01 67.8505C75.1815 68.0214 75.2778 68.2531 75.2778 68.4947C75.2778 68.7363 75.1815 68.9679 75.01 69.1388C74.8386 69.3096 74.606 69.4056 74.3636 69.4056Z" fill="#2F3948"/>
<path d="M78.1348 72.4798H52.6545C52.412 72.4798 52.1795 72.3838 52.008 72.213C51.8366 72.0422 51.7402 71.8105 51.7402 71.5689C51.7402 71.3273 51.8366 71.0956 52.008 70.9248C52.1795 70.7539 52.412 70.658 52.6545 70.658H78.1348C78.3772 70.658 78.6098 70.7539 78.7812 70.9248C78.9527 71.0956 79.049 71.3273 79.049 71.5689C79.049 71.8105 78.9527 72.0422 78.7812 72.213C78.6098 72.3838 78.3772 72.4798 78.1348 72.4798Z" fill="#8F8F8F"/>
<path d="M44.0622 73.9516C46.2043 73.9516 47.9409 72.2213 47.9409 70.087C47.9409 67.9526 46.2043 66.2224 44.0622 66.2224C41.9201 66.2224 40.1836 67.9526 40.1836 70.087C40.1836 72.2213 41.9201 73.9516 44.0622 73.9516Z" fill="#8F8F8F"/>
</g>
<defs>
<clipPath id="clip0_95_760">
<rect width="86" height="80" fill="white"/>
</clipPath>
</defs>
</svg>
