<svg width="120" height="109" viewBox="0 0 120 109" fill="none" xmlns="http://www.w3.org/2000/svg">
<g clip-path="url(#clip0_95_722)">
<path d="M61.3821 63.5217L35.2239 63.9865C34.811 63.9947 34.4005 63.9206 34.016 63.7684C33.6315 63.6161 33.2805 63.3887 32.9831 63.0992C32.6857 62.8097 32.4477 62.4638 32.2828 62.0813C32.1179 61.6987 32.0292 61.287 32.022 60.8698C32.0147 60.4526 32.089 60.038 32.2405 59.6499C32.392 59.2617 32.6178 58.9075 32.9049 58.6076C33.1921 58.3077 33.535 58.068 33.9139 57.9022C34.2929 57.7364 34.7005 57.6477 35.1135 57.6413L61.2717 57.1766C61.6617 57.1697 62.0384 57.3196 62.319 57.5933C62.5996 57.8671 62.7611 58.2422 62.7679 58.6363L62.8266 62.0099C62.8332 62.3867 62.6978 62.752 62.4478 63.0318C62.1978 63.3115 61.852 63.4849 61.4803 63.5167C61.4478 63.5194 61.415 63.5211 61.3821 63.5217Z" fill="#E6E6E6"/>
<path d="M56.329 64.384L34.8683 65.3739C34.6754 65.3828 34.4826 65.3532 34.301 65.2869C34.1194 65.2205 33.9525 65.1186 33.8099 64.9871C33.6672 64.8556 33.5516 64.6969 33.4696 64.5202C33.3877 64.3435 33.341 64.1523 33.3321 63.9573L33.105 58.9301C33.0873 58.5364 33.225 58.1517 33.4879 57.8606C33.7509 57.5695 34.1174 57.3959 34.5071 57.3779L55.9677 56.388C56.1606 56.3791 56.3534 56.4087 56.535 56.475C56.7166 56.5414 56.8835 56.6433 57.0262 56.7748C57.1688 56.9063 57.2844 57.065 57.3664 57.2417C57.4484 57.4184 57.4951 57.6096 57.5039 57.8046L57.731 62.8318C57.7479 63.2156 57.6171 63.5912 57.3661 63.8799C57.1151 64.1686 56.7634 64.348 56.3844 64.3804C56.3661 64.382 56.3475 64.3832 56.329 64.384Z" fill="#2F2E41"/>
<path d="M20.0391 107.514V79.3921C20.0395 78.9981 20.1946 78.6204 20.4703 78.3418C20.746 78.0633 21.1198 77.9066 21.5097 77.9061H24.8491C25.239 77.9066 25.6128 78.0633 25.8885 78.3418C26.1642 78.6204 26.3193 78.9981 26.3197 79.3921V107.514C26.3193 107.908 26.1642 108.286 25.8885 108.564C25.6128 108.843 25.239 109 24.8491 109H21.5097C21.1198 109 20.746 108.843 20.4703 108.564C20.1946 108.286 20.0395 107.908 20.0391 107.514Z" fill="#E6E6E6"/>
<path d="M28.8008 107.514V79.3921C28.8012 78.9981 28.9563 78.6204 29.232 78.3418C29.5077 78.0633 29.8815 77.9066 30.2714 77.9061H33.6108C34.0007 77.9066 34.3745 78.0633 34.6502 78.3418C34.9259 78.6204 35.081 78.9981 35.0814 79.3921V107.514C35.081 107.908 34.9259 108.286 34.6502 108.564C34.3745 108.843 34.0007 109 33.6108 109H30.2714C29.8815 109 29.5077 108.843 29.232 108.564C28.9563 108.286 28.8012 107.908 28.8008 107.514Z" fill="#E6E6E6"/>
<path d="M29.6735 48.5577C36.0462 48.5577 41.2122 43.3378 41.2122 36.8987C41.2122 30.4597 36.0462 25.2397 29.6735 25.2397C23.3008 25.2397 18.1348 30.4597 18.1348 36.8987C18.1348 43.3378 23.3008 48.5577 29.6735 48.5577Z" fill="#E6E6E6"/>
<path d="M35.92 40.8795C36.2912 40.7563 36.6319 40.5542 36.9193 40.2868C37.1098 40.0959 37.2566 39.8652 37.3495 39.6109C37.4424 39.3567 37.4792 39.0849 37.4572 38.8148C37.4452 38.6223 37.3892 38.4353 37.2937 38.2683C37.1982 38.1013 37.0659 37.9588 36.9069 37.8521C36.4942 37.5847 35.9424 37.5839 35.3805 37.8341L35.4017 33.2826L34.9493 33.2804L34.9242 38.6312L35.2729 38.4096C35.6772 38.153 36.2545 37.9725 36.6625 38.237C36.7633 38.3068 36.8468 38.3993 36.9065 38.5071C36.9663 38.6149 37.0006 38.7351 37.0068 38.8585C37.022 39.0598 36.9942 39.2619 36.9252 39.4513C36.8562 39.6407 36.7476 39.8129 36.6068 39.9561C36.1072 40.4383 35.3782 40.5891 34.5469 40.7239L34.6186 41.1753C35.0603 41.1162 35.4958 41.0172 35.92 40.8795Z" fill="#2F2E41"/>
<path d="M40.0665 33.0526L37.6504 33.375L37.7096 33.8282L40.1257 33.5058L40.0665 33.0526Z" fill="#2F2E41"/>
<path d="M32.4395 34.07L30.0234 34.3925L30.0827 34.8457L32.4988 34.5233L32.4395 34.07Z" fill="#2F2E41"/>
<path d="M5.19336 35.9782L21.7603 56.4377C22.0216 56.7602 22.2175 57.1315 22.3368 57.5305C22.4561 57.9295 22.4964 58.3483 22.4554 58.7631C22.4145 59.1778 22.2931 59.5803 22.0981 59.9476C21.9032 60.3149 21.6385 60.6398 21.3193 60.9038C21 61.1677 20.6324 61.3655 20.2375 61.4858C19.8426 61.6062 19.428 61.6467 19.0176 61.6052C18.6072 61.5636 18.2088 61.4407 17.8454 61.2436C17.482 61.0465 17.1605 60.7789 16.8995 60.4562L0.332489 39.9968C0.21018 39.8458 0.118507 39.6719 0.0627106 39.4851C0.00691407 39.2982 -0.0119177 39.1021 0.00729349 38.908C0.0265047 38.7138 0.0833793 38.5254 0.174673 38.3534C0.265967 38.1814 0.389889 38.0293 0.539365 37.9058L3.12386 35.7691C3.42574 35.5195 3.81337 35.4014 4.20147 35.4406C4.58957 35.4798 4.94636 35.6732 5.19336 35.9782Z" fill="#E6E6E6"/>
<path d="M10.7179 40.5445L24.3218 57.3447C24.4441 57.4957 24.5357 57.6696 24.5915 57.8564C24.6473 58.0432 24.6662 58.2393 24.6469 58.4335C24.6277 58.6276 24.5709 58.8161 24.4796 58.988C24.3883 59.16 24.2643 59.3121 24.1149 59.4357L19.7004 63.0851C19.551 63.2087 19.3789 63.3013 19.194 63.3577C19.0091 63.4141 18.815 63.4331 18.6228 63.4137C18.4307 63.3943 18.2442 63.3368 18.074 63.2446C17.9038 63.1523 17.7533 63.0271 17.631 62.876L4.02707 46.0759C3.78052 45.7708 3.66384 45.3792 3.70262 44.9872C3.7414 44.5952 3.93249 44.2348 4.23395 43.9849L8.64845 40.3354C8.95033 40.0858 9.33794 39.9677 9.72603 40.0069C10.1141 40.0461 10.4709 40.2395 10.7179 40.5445Z" fill="#2F2E41"/>
<path d="M105.036 20.1206C104.869 19.7215 104.591 19.3805 104.235 19.1396C103.878 18.8988 103.46 18.7688 103.031 18.7657H63.0279C62.4529 18.7661 61.9015 18.997 61.4949 19.4079C61.0882 19.8187 60.8597 20.3758 60.8594 20.9569V72.0926C60.8597 72.6736 61.0882 73.2308 61.4949 73.6416C61.9015 74.0525 62.4529 74.2834 63.0279 74.2837H103.033C103.608 74.283 104.159 74.0519 104.565 73.6411C104.972 73.2304 105.201 72.6735 105.201 72.0926V20.9569C105.202 20.6698 105.147 20.3855 105.037 20.1206H105.036ZM104.718 72.0926C104.718 72.5445 104.54 72.9777 104.224 73.2973C103.908 73.6168 103.479 73.7966 103.032 73.7971H63.0279C62.5806 73.7971 62.1516 73.6175 61.8352 73.2979C61.5189 72.9783 61.3411 72.5449 61.3409 72.0929V20.9572C61.3415 20.5053 61.5195 20.0721 61.8357 19.7526C62.1519 19.433 62.5807 19.2532 63.0279 19.2526H103.033C103.37 19.2539 103.699 19.3566 103.978 19.5476C104.256 19.7386 104.473 20.0092 104.599 20.3249C104.623 20.3878 104.644 20.452 104.662 20.5172C104.7 20.6606 104.72 20.8086 104.72 20.9572L104.718 72.0926Z" fill="#3F3D56"/>
<path d="M96.687 30.8387H84.6374C84.5107 30.8389 84.3852 30.8139 84.268 30.765C84.1509 30.7162 84.0444 30.6444 83.9548 30.554C83.8651 30.4635 83.7939 30.3561 83.7454 30.2378C83.6969 30.1195 83.6719 29.9927 83.6719 29.8647C83.6719 29.7366 83.6969 29.6099 83.7454 29.4916C83.7939 29.3733 83.8651 29.2659 83.9548 29.1754C84.0444 29.0849 84.1509 29.0132 84.268 28.9643C84.3852 28.9155 84.5107 28.8904 84.6374 28.8906H96.687C96.8138 28.8904 96.9393 28.9155 97.0564 28.9643C97.1735 29.0132 97.28 29.0849 97.3697 29.1754C97.4593 29.2659 97.5305 29.3733 97.579 29.4916C97.6276 29.6099 97.6525 29.7366 97.6525 29.8647C97.6525 29.9927 97.6276 30.1195 97.579 30.2378C97.5305 30.3561 97.4593 30.4635 97.3697 30.554C97.28 30.6444 97.1735 30.7162 97.0564 30.765C96.9393 30.8139 96.8138 30.8389 96.687 30.8387Z" fill="#3F3D56"/>
<path d="M96.687 35.9523H84.6374C84.5107 35.9525 84.3852 35.9274 84.268 35.8786C84.1509 35.8297 84.0444 35.758 83.9548 35.6675C83.8651 35.577 83.7939 35.4696 83.7454 35.3513C83.6969 35.233 83.6719 35.1062 83.6719 34.9782C83.6719 34.8502 83.6969 34.7234 83.7454 34.6051C83.7939 34.4868 83.8651 34.3794 83.9548 34.2889C84.0444 34.1984 84.1509 34.1267 84.268 34.0779C84.3852 34.029 84.5107 34.004 84.6374 34.0042H96.687C96.8138 34.004 96.9393 34.029 97.0564 34.0779C97.1735 34.1267 97.28 34.1984 97.3697 34.2889C97.4593 34.3794 97.5305 34.4868 97.579 34.6051C97.6276 34.7234 97.6525 34.8502 97.6525 34.9782C97.6525 35.1062 97.6276 35.233 97.579 35.3513C97.5305 35.4696 97.4593 35.577 97.3697 35.6675C97.28 35.758 97.1735 35.8297 97.0564 35.8786C96.9393 35.9274 96.8138 35.9525 96.687 35.9523Z" fill="#3F3D56"/>
<path d="M78.4548 38.8639H69.649C69.3615 38.8636 69.0858 38.7481 68.8824 38.5426C68.6791 38.3372 68.5648 38.0586 68.5645 37.7681V27.2682C68.5648 26.9777 68.6791 26.6991 68.8824 26.4937C69.0858 26.2882 69.3615 26.1727 69.649 26.1724H78.4548C78.7424 26.1727 79.0181 26.2882 79.2214 26.4937C79.4247 26.6991 79.5391 26.9777 79.5394 27.2682V37.7681C79.5391 38.0586 79.4247 38.3372 79.2214 38.5426C79.0181 38.7481 78.7424 38.8636 78.4548 38.8639Z" fill="#E6E6E6"/>
<path d="M96.6044 46.423H69.3722C69.1165 46.423 68.8713 46.3203 68.6906 46.1377C68.5098 45.955 68.4082 45.7072 68.4082 45.4489C68.4082 45.1906 68.5098 44.9428 68.6906 44.7601C68.8713 44.5775 69.1165 44.4749 69.3722 44.4749H96.6044C96.86 44.4749 97.1052 44.5775 97.286 44.7601C97.4668 44.9428 97.5684 45.1906 97.5684 45.4489C97.5684 45.7072 97.4668 45.955 97.286 46.1377C97.1052 46.3203 96.86 46.423 96.6044 46.423Z" fill="#E6E6E6"/>
<path d="M96.6029 51.5366H69.3707C69.1153 51.5362 68.8705 51.4334 68.69 51.2508C68.5096 51.0682 68.4082 50.8206 68.4082 50.5626C68.4082 50.3045 68.5096 50.057 68.69 49.8743C68.8705 49.6917 69.1153 49.5889 69.3707 49.5885H96.6029C96.7296 49.5883 96.8551 49.6133 96.9723 49.6622C97.0894 49.7111 97.1958 49.7828 97.2855 49.8733C97.3752 49.9637 97.4463 50.0712 97.4949 50.1895C97.5434 50.3077 97.5684 50.4345 97.5684 50.5626C97.5684 50.6906 97.5434 50.8174 97.4949 50.9357C97.4463 51.0539 97.3752 51.1614 97.2855 51.2519C97.1958 51.3423 97.0894 51.414 96.9723 51.4629C96.8551 51.5118 96.7296 51.5368 96.6029 51.5366Z" fill="#E6E6E6"/>
<path d="M96.6029 56.6501H69.3707C69.1153 56.6497 68.8705 56.5469 68.69 56.3643C68.5096 56.1817 68.4082 55.9342 68.4082 55.6761C68.4082 55.418 68.5096 55.1705 68.69 54.9879C68.8705 54.8052 69.1153 54.7024 69.3707 54.702H96.6029C96.7296 54.7018 96.8551 54.7269 96.9723 54.7757C97.0894 54.8246 97.1958 54.8963 97.2855 54.9868C97.3752 55.0773 97.4463 55.1847 97.4949 55.303C97.5434 55.4213 97.5684 55.548 97.5684 55.6761C97.5684 55.8041 97.5434 55.9309 97.4949 56.0492C97.4463 56.1675 97.3752 56.2749 97.2855 56.3654C97.1958 56.4559 97.0894 56.5276 96.9723 56.5764C96.8551 56.6253 96.7296 56.6503 96.6029 56.6501Z" fill="#E6E6E6"/>
<path d="M96.6029 61.7638H69.3707C69.1153 61.7634 68.8705 61.6606 68.69 61.478C68.5096 61.2953 68.4082 61.0478 68.4082 60.7897C68.4082 60.5317 68.5096 60.2841 68.69 60.1015C68.8705 59.9189 69.1153 59.8161 69.3707 59.8157H96.6029C96.7296 59.8155 96.8551 59.8405 96.9723 59.8894C97.0894 59.9383 97.1958 60.01 97.2855 60.1004C97.3752 60.1909 97.4463 60.2984 97.4949 60.4166C97.5434 60.5349 97.5684 60.6617 97.5684 60.7897C97.5684 60.9178 97.5434 61.0446 97.4949 61.1628C97.4463 61.2811 97.3752 61.3886 97.2855 61.479C97.1958 61.5695 97.0894 61.6412 96.9723 61.6901C96.8551 61.7389 96.7296 61.764 96.6029 61.7638Z" fill="#E6E6E6"/>
<path d="M96.6029 66.8773H69.3707C69.1153 66.8769 68.8705 66.7741 68.69 66.5915C68.5096 66.4089 68.4082 66.1613 68.4082 65.9033C68.4082 65.6452 68.5096 65.3977 68.69 65.215C68.8705 65.0324 69.1153 64.9296 69.3707 64.9292H96.6029C96.7296 64.929 96.8551 64.954 96.9723 65.0029C97.0894 65.0518 97.1958 65.1235 97.2855 65.214C97.3752 65.3044 97.4463 65.4119 97.4949 65.5302C97.5434 65.6484 97.5684 65.7752 97.5684 65.9033C97.5684 66.0313 97.5434 66.1581 97.4949 66.2764C97.4463 66.3946 97.3752 66.5021 97.2855 66.5926C97.1958 66.683 97.0894 66.7547 96.9723 66.8036C96.8551 66.8525 96.7296 66.8775 96.6029 66.8773Z" fill="#E6E6E6"/>
<path d="M106.199 27.8887C113.821 27.8887 119.999 21.6456 119.999 13.9444C119.999 6.2431 113.821 0 106.199 0C98.5771 0 92.3984 6.2431 92.3984 13.9444C92.3984 21.6456 98.5771 27.8887 106.199 27.8887Z" fill="#2F2E41"/>
<path d="M105.932 23.5425C106.829 23.5425 107.556 22.8079 107.556 21.9018C107.556 20.9956 106.829 20.261 105.932 20.261C105.036 20.261 104.309 20.9956 104.309 21.9018C104.309 22.8079 105.036 23.5425 105.932 23.5425Z" fill="white"/>
<path d="M105.758 4.78077C104.534 4.79304 103.363 5.28752 102.494 6.15897C101.625 7.03043 101.127 8.21007 101.106 9.44684C101.106 9.47052 101.105 9.63698 101.105 9.85469C101.105 10.1739 101.231 10.48 101.454 10.7058C101.678 10.9315 101.981 11.0583 102.297 11.0584C102.613 11.0583 102.916 10.9313 103.139 10.7054C103.363 10.4795 103.489 10.1731 103.488 9.85362V9.85284C103.488 9.70474 103.488 9.60224 103.488 9.59595C103.488 9.19967 103.59 8.81019 103.784 8.46583C103.978 8.12147 104.258 7.83409 104.595 7.63195C104.932 7.42982 105.316 7.31989 105.708 7.31299C106.1 7.30609 106.487 7.40245 106.832 7.5926C107.176 7.78274 107.465 8.06012 107.671 8.39744C107.877 8.73476 107.992 9.12042 108.005 9.51646C108.019 9.9125 107.93 10.3053 107.748 10.6562C107.566 11.0071 107.296 11.304 106.966 11.5178L106.967 11.5183C106.967 11.5183 105.271 12.6211 104.754 14.1341L104.755 14.1342C104.664 14.4441 104.618 14.7657 104.618 15.089C104.618 15.2218 104.626 16.3845 104.641 17.3282C104.646 17.6538 104.778 17.9643 105.007 18.1926C105.237 18.421 105.546 18.5489 105.869 18.5489C106.03 18.5488 106.19 18.5167 106.339 18.4544C106.488 18.392 106.623 18.3006 106.737 18.1853C106.851 18.07 106.942 17.9332 107.004 17.7826C107.065 17.632 107.097 17.4707 107.097 17.3077L107.097 17.3001C107.092 16.4358 107.089 15.4295 107.089 15.3565C107.089 14.4275 107.976 13.5019 108.704 12.8983C109.548 12.2082 110.141 11.2547 110.39 10.1875C110.443 9.96748 110.473 9.7422 110.478 9.51569C110.478 8.89388 110.357 8.27815 110.121 7.70367C109.886 7.12918 109.54 6.6072 109.105 6.16751C108.67 5.72782 108.154 5.37903 107.585 5.14107C107.016 4.90312 106.407 4.78064 105.792 4.78064C105.78 4.78064 105.769 4.78068 105.758 4.78077Z" fill="white"/>
<path d="M26.7807 31.7403C28.8466 30.368 31.443 30.9854 33.7392 31.1646C35.8139 31.3266 38.2731 31.167 39.7323 29.4543C41.2505 27.6724 41.1236 25.0267 39.8667 23.1419C38.6295 21.2868 36.5758 20.1154 34.4032 19.8065C33.1994 19.6283 31.9721 19.7053 30.7994 20.0325C29.6267 20.3597 28.5342 20.9301 27.5916 21.7072L28.33 22.0163C27.8996 17.8596 24.875 14.102 20.817 13.0828C16.7111 12.0515 12.1194 13.8115 9.92883 17.5106C7.76927 21.1573 8.02511 26.246 11.1335 29.2765C12.6263 30.7318 14.657 31.4733 16.7177 31.0776C18.6183 30.7128 20.307 29.3128 20.6627 27.3359C20.9924 25.5033 20.2721 23.4218 18.5079 22.6214C18.0252 22.3939 17.4976 22.2802 16.9651 22.2888C16.4325 22.2974 15.9088 22.4281 15.4335 22.671C15.003 22.9158 14.6393 23.2645 14.3748 23.686C14.1104 24.1075 13.9535 24.5887 13.9181 25.0865C13.8852 25.5684 13.9824 26.0503 14.1992 26.4809C14.4441 26.986 15.1905 26.5435 14.9462 26.0397C14.7884 25.6693 14.7436 25.2598 14.8174 24.8635C14.8912 24.4672 15.0804 24.1021 15.3606 23.8151C16.0019 23.1382 17.0142 23.0257 17.8663 23.3025C19.4256 23.8089 20.114 25.6162 19.8202 27.1495C19.4911 28.8669 18.0401 29.9704 16.3879 30.2529C14.5912 30.5602 12.8391 29.7937 11.5919 28.5044C8.97989 25.8043 8.75385 21.4554 10.5158 18.2329C12.3033 14.9637 16.1162 13.2082 19.748 13.7566C23.3393 14.2989 26.2969 17.153 27.2185 20.6723C27.3348 21.1132 27.4171 21.5625 27.4649 22.0162C27.4678 22.1013 27.4949 22.1837 27.5429 22.2537C27.591 22.3236 27.6579 22.3781 27.7357 22.4107C27.8135 22.4433 27.899 22.4525 27.9819 22.4374C28.0648 22.4223 28.1417 22.3833 28.2033 22.3253C31.272 19.7501 36.3761 20.0263 38.8923 23.2659C40.1263 24.8547 40.49 27.3219 39.0489 28.9178C37.6768 30.4375 35.3982 30.439 33.5242 30.2726C31.1269 30.0597 28.4915 29.5591 26.344 30.9855C25.8807 31.2933 26.3136 32.0505 26.7807 31.7403Z" fill="#2F2E41"/>
<path d="M36.0859 89.1988H18.784C18.4399 89.1984 18.1101 89.0602 17.8668 88.8144C17.6235 88.5685 17.4867 88.2353 17.4863 87.8876V82.0602C17.4867 81.7126 17.6235 81.3793 17.8668 81.1335C18.1101 80.8877 18.4399 80.7494 18.784 80.749H36.0859C36.43 80.7494 36.7598 80.8877 37.0031 81.1335C37.2464 81.3793 37.3832 81.7126 37.3836 82.0602V87.8876C37.3832 88.2353 37.2464 88.5685 37.0031 88.8144C36.7598 89.0602 36.43 89.1984 36.0859 89.1988Z" fill="#2F2E41"/>
<path d="M36.6764 60.4681C36.1347 57.6689 34.0308 55.4522 31.3001 54.5407C32.2862 54.2201 32.9131 53.7454 32.9131 53.2144C32.9131 52.2489 30.8474 51.4662 28.2993 51.4662C25.7511 51.4662 23.6854 52.2489 23.6854 53.2144C23.6854 53.7531 24.3294 54.2345 25.3406 54.5552C21.1541 55.8163 18.1154 59.4978 18.1154 63.8329C18.1154 63.8329 16.8267 72.1803 15.8149 78.8529C15.1676 83.1217 18.7045 86.9373 23.3075 86.9373H39.496C40.5564 86.9373 41.4191 86.1292 41.4191 85.1359C41.4191 85.1359 38.4361 69.5611 36.6764 60.4681Z" fill="#2F2E41"/>
</g>
<defs>
<clipPath id="clip0_95_722">
<rect width="120" height="109" fill="white"/>
</clipPath>
</defs>
</svg>
