<svg width="388" height="287" viewBox="0 0 388 287" fill="none" xmlns="http://www.w3.org/2000/svg">
<ellipse cx="200.5" cy="248.5" rx="115.5" ry="16.5" fill="#3F3D56"/>
<path d="M275.377 69.302C285.694 69.302 294.058 60.9268 294.058 50.5954C294.058 40.2641 285.694 31.8889 275.377 31.8889C265.059 31.8889 256.695 40.2641 256.695 50.5954C256.695 60.9268 265.059 69.302 275.377 69.302Z" fill="#CCCCCC"/>
<path d="M313.569 163.249C320.806 163.249 326.673 157.374 326.673 150.127C326.673 142.879 320.806 137.004 313.569 137.004C306.331 137.004 300.464 142.879 300.464 150.127C300.464 157.374 306.331 163.249 313.569 163.249Z" fill="#FFA500"/>
<path d="M48.3612 104.9C54.1645 104.9 58.8689 100.189 58.8689 94.3778C58.8689 88.5668 54.1645 83.856 48.3612 83.856C42.558 83.856 37.8535 88.5668 37.8535 94.3778C37.8535 100.189 42.558 104.9 48.3612 104.9Z" fill="#CCCCCC"/>
<path d="M65.6611 111.977C69.732 111.977 73.0322 108.672 73.0322 104.596C73.0322 100.519 69.732 97.2145 65.6611 97.2145C61.5902 97.2145 58.29 100.519 58.29 104.596C58.29 108.672 61.5902 111.977 65.6611 111.977Z" fill="#CCCCCC"/>
<path d="M110.947 39.7074C115.383 39.7074 118.979 36.1064 118.979 31.6644C118.979 27.2224 115.383 23.6214 110.947 23.6214C106.511 23.6214 102.915 27.2224 102.915 31.6644C102.915 36.1064 106.511 39.7074 110.947 39.7074Z" fill="#FFA500"/>
<path d="M326.753 227.093L300.561 188.316C300.561 188.316 340.226 202.118 335.725 227.093H326.753Z" fill="#E5E5E5"/>
<path d="M54.0307 227.091L53.0293 227.071C53.4166 215.989 54.6045 204.949 56.5839 194.036C60.914 170.672 68.1142 155.328 77.9845 148.43L78.5595 149.245C55.5024 165.359 54.0424 226.475 54.0307 227.091Z" fill="#575A89"/>
<path d="M67.3152 227.093L66.3496 227.073C66.3704 225.969 66.9739 199.942 76.8952 192.748L77.4497 193.564C67.9286 200.467 67.3199 226.827 67.3152 227.093Z" fill="#575A89"/>
<path d="M84.665 149.54C87.4236 149.54 89.66 147.308 89.66 144.555C89.66 141.801 87.4236 139.569 84.665 139.569C81.9063 139.569 79.6699 141.801 79.6699 144.555C79.6699 147.308 81.9063 149.54 84.665 149.54Z" fill="#FFA500"/>
<path d="M82.4452 192.749C85.2039 192.749 87.4403 190.517 87.4403 187.763C87.4403 185.01 85.2039 182.777 82.4452 182.777C79.6865 182.777 77.4502 185.01 77.4502 187.763C77.4502 190.517 79.6865 192.749 82.4452 192.749Z" fill="#FFA500"/>
<path d="M64.9963 152.35C66.062 158.469 63.2844 163.942 63.2844 163.942C63.2844 163.942 58.7789 159.494 57.7132 153.375C56.6475 147.256 59.4251 141.784 59.4251 141.784C59.4251 141.784 63.9306 146.232 64.9963 152.35Z" fill="#E5E5E5"/>
<path d="M81.2934 167.266C75.4695 169.397 69.6797 167.801 69.6797 167.801C69.6797 167.801 73.3322 162.751 79.1561 160.62C84.9799 158.489 90.7698 160.085 90.7698 160.085C90.7698 160.085 87.1173 165.135 81.2934 167.266Z" fill="#E5E5E5"/>
<path d="M80.956 205.358C78.383 206.139 75.6429 206.254 73.0098 205.69C74.6816 203.632 76.9334 202.086 79.4936 201.237C82.0539 200.388 84.8134 200.273 87.4399 200.905C85.7192 202.913 83.4833 204.448 80.956 205.358Z" fill="#E5E5E5"/>
<path d="M355.562 228.199H32.4389C32.3064 228.199 32.1794 228.141 32.0857 228.037C31.9921 227.933 31.9395 227.792 31.9395 227.645C31.9395 227.498 31.9921 227.357 32.0857 227.253C32.1794 227.149 32.3064 227.091 32.4389 227.091H355.562C355.694 227.091 355.821 227.149 355.915 227.253C356.009 227.357 356.061 227.498 356.061 227.645C356.061 227.792 356.009 227.933 355.915 228.037C355.821 228.141 355.694 228.199 355.562 228.199Z" fill="#CBCBCB"/>
<path d="M236.181 251.171L232.132 261.438L189.561 251.108L195.536 235.956L236.181 251.171Z" fill="#FFB7B7"/>
<path d="M248.39 252.37L234.908 286.92L234.464 286.752C230.842 285.381 227.921 282.651 226.343 279.16C224.766 275.669 224.662 271.704 226.053 268.138L226.053 268.137L234.288 247.035L248.39 252.37Z" fill="#2F3948"/>
<path d="M171.707 118.518L152.76 120.257L151.82 175.53C152.071 178.238 153.395 180.743 155.506 182.507C157.618 184.271 160.35 185.154 163.118 184.967L175.13 184.156L171.707 118.518Z" fill="#575A89"/>
<path d="M237.404 115.359L224.722 115.193L223.971 181.656C226.773 181.751 229.565 181.259 232.171 180.211C234.778 179.163 237.144 177.582 239.121 175.566C241.099 173.549 242.645 171.141 243.665 168.492C244.684 165.842 245.154 163.008 245.046 160.166L237.404 115.359Z" fill="#575A89"/>
<path d="M162.683 205.25C162.377 207.172 161.934 209.069 161.357 210.928C160.706 212.747 159.702 214.429 159.107 216.268C157.211 222.126 159.839 228.659 164.037 233.181C167.678 237.087 172.377 239.862 177.568 241.172C181.355 242.119 185.293 242.255 189.196 242.387C200.003 242.751 211.088 243.077 221.329 239.623C224.564 238.505 227.689 237.093 230.664 235.405C231.603 234.96 232.431 234.312 233.086 233.509C233.868 232.403 233.967 230.968 233.961 229.617C233.938 225.061 233.009 220.528 233.229 215.976C233.351 213.455 233.826 210.937 233.592 208.423C233.269 205.569 232.067 202.884 230.15 200.736C228.234 198.587 225.696 197.08 222.885 196.421C219.98 195.801 216.967 196.139 214.009 196.422C206.332 197.155 198.622 197.498 190.91 197.449C183.03 197.399 175.199 196.202 167.358 196.078C165.039 196.041 165.086 196.752 164.348 198.983C163.668 201.037 163.112 203.13 162.683 205.25Z" fill="#2F3948"/>
<path d="M132.34 201.209C130.239 200.674 128.075 200.441 125.911 200.517C123.636 200.644 121.415 201.26 119.394 202.325C117.373 203.389 115.599 204.877 114.19 206.69C112.781 208.503 111.769 210.599 111.221 212.839C110.673 215.079 110.602 217.411 111.013 219.681C111.538 222.139 112.395 224.513 113.561 226.733C115.266 230.239 117.311 233.736 120.467 235.983C122.314 237.297 124.451 238.116 126.562 238.922L143.187 245.267C145.632 246.2 148.078 247.134 150.548 247.999C162.957 252.344 175.893 254.95 188.998 255.743C192.99 255.984 197.042 256.051 200.937 255.131C201.861 254.912 202.847 254.586 203.382 253.792C203.699 253.233 203.885 252.608 203.928 251.964L204.951 244.709C205.095 243.687 205.234 242.612 204.864 241.651C204.395 240.431 203.221 239.664 202.101 239.012C191.171 232.653 178.41 229.144 169.21 220.416C167.045 218.361 165.232 215.104 162.601 213.708C159.617 212.126 156.103 211.222 153.019 209.764C146.276 206.575 139.647 202.911 132.34 201.209Z" fill="#2F3948"/>
<path opacity="0.1" d="M149.239 211.039C155.087 212.911 179.778 225.884 184.01 230.413C183.443 230.622 164.196 219.6 163.618 219.423C158.369 217.813 153.09 216.193 148.104 213.837C147.101 213.363 141.589 211.135 141.838 209.842C142.12 208.383 148.201 210.707 149.239 211.039Z" fill="black"/>
<path d="M184.986 99.3248L169.12 111.369C169.12 111.369 152.378 111.892 152.944 122.592C153.509 133.292 160.21 183.951 160.21 183.951L161.664 201.381L189.24 209.237C204.14 213.481 219.882 213.819 234.95 210.216L231.673 192.73C231.673 192.73 244.943 113.311 236.949 109.815C228.954 106.318 223.958 107.317 223.958 107.317L213.938 98.5755L184.986 99.3248Z" fill="#575A89"/>
<path d="M231.741 79.6955C231.741 95.2633 217.329 92.9086 199.551 92.9086C181.772 92.9086 167.36 95.2633 167.36 79.6955C167.36 64.1276 174.4 36.5324 199.551 36.5324C225.567 36.5324 231.741 64.1276 231.741 79.6955Z" fill="#2F3948"/>
<path d="M215.997 85.1483C224.482 76.6555 224.482 62.886 215.997 54.3932C207.513 45.9004 193.758 45.9004 185.274 54.3932C176.79 62.886 176.79 76.6555 185.274 85.1483C193.758 93.6411 207.513 93.6411 215.997 85.1483Z" fill="#FFB7B7"/>
<path d="M174.021 69.7707H182.533L186.289 59.0325L187.04 69.7707H191.109L193.3 63.5067L193.738 69.7707H223.971C223.971 63.6001 221.57 57.6823 217.297 53.3191C213.025 48.9559 207.229 46.5046 201.186 46.5046H196.805C190.762 46.5046 184.967 48.9559 180.694 53.3191C176.421 57.6823 174.021 63.6001 174.021 69.7707Z" fill="#2F3948"/>
<path d="M220.641 101.9H177.351V153.971H220.641V101.9Z" fill="#FFA500"/>
<path d="M179.57 250.723L183.716 261.436L227.301 250.658L221.183 234.846L179.57 250.723Z" fill="#FFB7B7"/>
<path d="M182.573 247.035L190.808 268.137L190.808 268.138C192.199 271.704 192.095 275.669 190.517 279.16C188.94 282.651 186.019 285.381 182.397 286.752L181.953 286.92L168.471 252.37L182.573 247.035Z" fill="#2F3948"/>
<path d="M265.607 196.976C269.039 196.107 272.598 195.861 276.116 196.251C278.925 196.564 281.82 197.353 283.871 199.317C286.368 201.707 287.17 205.403 287.237 208.877C287.347 215.795 285.074 222.536 280.808 227.951C279.767 229.32 278.528 230.524 277.133 231.523C275.628 232.474 274.025 233.254 272.351 233.85L235.232 248.635C225.467 252.524 215.668 256.425 205.482 258.989C204.928 259.259 204.291 259.296 203.71 259.091C203.13 258.887 202.653 258.458 202.386 257.899C202.378 257.882 202.37 257.864 202.362 257.847C199.11 253.156 196.382 248.116 194.227 242.819C194.125 242.693 194.054 242.544 194.021 242.385C193.988 242.226 193.994 242.061 194.037 241.904C194.081 241.748 194.161 241.604 194.271 241.485C194.381 241.367 194.518 241.277 194.67 241.223L220.924 225.989C222.805 224.898 224.707 223.791 226.268 222.271C227.403 221.161 228.332 219.855 229.012 218.414C229.556 217.267 229.607 214.558 230.302 213.709C230.982 212.879 233.311 212.812 234.386 212.486C235.902 212.017 237.388 211.45 238.832 210.788C244.705 208.135 249.935 204.28 255.565 201.174C258.722 199.351 262.097 197.94 265.607 196.976Z" fill="#2F3948"/>
<path opacity="0.1" d="M250.423 208.883C245.928 212.233 240.108 215.311 235.654 218.749C234.133 219.922 208.789 234.058 208.431 235.936C212.587 236.63 239.061 218.256 242.848 216.423C246.636 214.589 249.994 212.004 253.321 209.437C254.169 208.783 257.762 206.817 255.328 206.086C253.957 205.675 251.435 208.214 250.423 208.883Z" fill="black"/>
<path opacity="0.17" d="M162.92 135.396L163.524 130.704C163.524 130.704 186.046 132.359 182.527 137.926C179.008 143.493 170.461 143.999 170.461 143.999L162.92 135.396Z" fill="#2F3948"/>
<path d="M179.628 115.246C180.9 115.388 182.124 115.814 183.214 116.492C184.304 117.17 185.232 118.084 185.932 119.169C186.57 120.159 187.004 121.269 187.208 122.433C187.411 123.598 187.381 124.791 187.118 125.943C186.855 127.095 186.365 128.181 185.677 129.136C184.99 130.091 184.119 130.896 183.117 131.501C182.75 131.721 182.366 131.912 181.97 132.073L168.328 174.36C167.933 175.195 167.379 175.942 166.698 176.558C166.017 177.175 165.222 177.649 164.36 177.954C163.497 178.258 162.584 178.386 161.672 178.332C160.76 178.277 159.868 178.041 159.047 177.636C158.226 177.23 157.492 176.665 156.887 175.971C156.283 175.278 155.819 174.47 155.523 173.594C155.228 172.718 155.106 171.792 155.165 170.868C155.224 169.944 155.462 169.042 155.866 168.212L170.374 126.394C169.978 125.01 169.926 123.549 170.22 122.14C170.515 120.731 171.148 119.417 172.063 118.315C172.978 117.213 174.147 116.356 175.467 115.821C176.786 115.286 178.216 115.088 179.628 115.246Z" fill="#FFB7B7"/>
<path d="M162.515 130.704C162.515 130.704 170.396 144.407 181.79 137.557L170.748 180.56H161.445L151.82 178.731L154.515 160.964L162.515 130.704Z" fill="#575A89"/>
<path d="M219.222 140.441L212.871 131.669C212.871 131.669 215.923 122.57 227.758 125.897C227.758 125.897 235.289 142.858 219.222 140.441Z" fill="#575A89"/>
<path opacity="0.17" d="M219.222 140.441L212.871 131.669C212.871 131.669 215.923 122.57 227.758 125.897C227.758 125.897 235.289 142.858 219.222 140.441Z" fill="#2F3948"/>
<path d="M220.774 109.367C222.642 110.232 224.136 111.735 224.984 113.604C225.833 115.473 225.98 117.583 225.398 119.551L239.905 160.633C240.309 161.449 240.548 162.336 240.606 163.243C240.665 164.151 240.543 165.061 240.248 165.921C239.952 166.781 239.489 167.575 238.884 168.257C238.279 168.938 237.545 169.494 236.724 169.892C235.903 170.29 235.011 170.522 234.099 170.576C233.187 170.63 232.274 170.503 231.411 170.204C230.549 169.905 229.754 169.439 229.073 168.833C228.392 168.227 227.838 167.493 227.443 166.674L213.801 125.13C213.405 124.972 213.022 124.784 212.654 124.568C211.652 123.974 210.781 123.183 210.094 122.245C209.406 121.307 208.916 120.24 208.653 119.108C208.39 117.977 208.36 116.804 208.564 115.66C208.767 114.516 209.201 113.426 209.839 112.453C210.539 111.387 211.467 110.489 212.557 109.823C213.647 109.157 214.872 108.739 216.143 108.599C217.728 108.421 219.332 108.686 220.774 109.367Z" fill="#FFB7B7"/>
<path d="M212.871 131.159C212.871 131.159 223.461 137.802 227.918 125.166L242.841 165.783L238.407 173.8L237.766 173.855C235.12 174.083 232.461 173.644 230.016 172.575C227.571 171.506 225.414 169.84 223.729 167.72C220.293 163.394 217.953 158.252 216.923 152.757L212.871 131.159Z" fill="#575A89"/>
</svg>
