<svg width="388" height="286" viewBox="0 0 388 286" fill="none" xmlns="http://www.w3.org/2000/svg">
<g clip-path="url(#clip0_6_1374)">
<path d="M351.335 284.675H269.066V282.163C269.066 279.982 269.936 277.89 271.486 276.348C273.036 274.806 275.139 273.939 277.33 273.939H343.07C345.262 273.939 347.364 274.806 348.914 276.348C350.464 277.89 351.335 279.982 351.335 282.163V284.675Z" fill="#E6E6E6"/>
<path d="M308.275 274.44L310.777 273.438C284.599 208.782 287.121 127.212 309.25 57.2406C311.878 49.1333 312.068 40.4383 309.795 32.2253C307.522 24.0122 302.886 16.6394 296.458 11.0139C283.614 -0.391343 265.906 -3.16975 250.243 3.76217C234.782 10.6056 232.651 22.5259 232.651 34.3882H235.349C235.349 21.7258 238.068 12.0889 251.34 6.21458C266.02 -0.28191 282.619 2.32383 294.662 13.0168C300.7 18.3003 305.054 25.2251 307.189 32.9391C309.324 40.6532 309.146 48.8199 306.677 56.4346C284.293 127.214 281.919 209.344 308.275 274.44Z" fill="#E6E6E6"/>
<path d="M234.674 73.9778C239.888 73.9778 244.115 69.7719 244.115 64.5837C244.115 59.3955 239.888 55.1895 234.674 55.1895C229.46 55.1895 225.233 59.3955 225.233 64.5837C225.233 69.7719 229.46 73.9778 234.674 73.9778Z" fill="#E6E6E6"/>
<path d="M220.134 80.9604V63.1607H222.916V80.9604C223.714 81.2815 224.374 81.8688 224.785 82.6215C225.195 83.3743 225.33 84.2457 225.165 85.0863C225.001 85.9269 224.548 86.6845 223.884 87.2291C223.22 87.7738 222.386 88.0717 221.525 88.0717C220.664 88.0717 219.831 87.7738 219.166 87.2291C218.502 86.6845 218.049 85.9269 217.885 85.0863C217.72 84.2457 217.855 83.3743 218.265 82.6215C218.676 81.8688 219.336 81.2815 220.134 80.9604Z" fill="#E6E6E6"/>
<path d="M206.688 49.4858C206.693 45.3941 208.329 41.4713 211.236 38.578C214.144 35.6847 218.086 34.0572 222.198 34.0526H247.823C251.937 34.0526 255.882 35.6786 258.79 38.5729C261.699 41.4672 263.333 45.3927 263.333 49.4858C263.333 53.579 261.699 57.5045 258.79 60.3988C255.882 63.2931 251.937 64.9191 247.823 64.9191H222.198C218.086 64.9144 214.144 63.2869 211.236 60.3937C208.329 57.5004 206.693 53.5776 206.688 49.4858Z" fill="#FFA500"/>
<path d="M170.585 145.058C173.158 112.305 186.312 96.699 177.889 86.9126C169.821 77.5384 147.094 79.4748 132.498 88.47C93.1307 112.732 78.7079 209.432 129.368 256.678C177.508 301.573 268.743 287.194 289.019 250.448C293.749 241.874 297.508 226.843 290.584 217.741C273.394 195.141 210.894 236.075 183.107 210.472C166.639 195.299 169.173 163.034 170.585 145.058Z" fill="#3F3D56"/>
<path d="M200.678 128.786C199.722 129.224 198.975 130.015 198.596 130.993C198.218 131.97 198.237 133.055 198.651 134.019C198.738 134.213 198.841 134.4 198.96 134.577L190.51 145.804L194.726 152.075L204.63 135.45C205.332 134.906 205.833 134.146 206.055 133.288C206.276 132.43 206.207 131.524 205.856 130.71C205.653 130.249 205.359 129.832 204.994 129.483C204.628 129.135 204.197 128.862 203.725 128.679C203.253 128.496 202.75 128.408 202.243 128.419C201.737 128.429 201.238 128.539 200.774 128.742C200.742 128.756 200.71 128.771 200.678 128.786Z" fill="#FFB6B6"/>
<path d="M200.671 148.143C201.224 148.631 199.69 149.233 198.068 148.283C197.603 148.008 197.405 147.894 197.353 147.966C197.222 148.148 197.984 149.487 197.781 152.462C197.655 154.238 194.692 157.576 191.327 160.831C186.777 165.233 181.487 169.48 181.487 169.48L179.629 168.001L160.153 152.462L156.866 147.935C157.167 146.147 157.619 144.388 158.218 142.676C159.042 140.306 160.021 137.993 161.15 135.75C161.755 134.53 162.376 133.367 162.971 132.298L173.405 143.74L182.149 153.324C182.149 153.324 184.696 149.243 186.668 148.132C186.919 147.973 187.205 147.875 187.502 147.847C189.495 147.753 189.615 146.674 187.304 144.322C184.993 141.97 187.909 144.166 189.965 143.533C192.021 142.899 189.965 143.533 190.398 141.949C190.831 140.366 196.596 137.188 196.596 137.188L196.836 137.401L201.193 141.228L202.44 142.323C202.44 142.323 201.078 146.04 200.702 146.824C200.327 147.608 200.123 147.65 200.671 148.143Z" fill="#FFA500"/>
<path d="M315.514 220.262L315.726 214.535L293.63 210.996L293.316 219.447L315.514 220.262Z" fill="#FFB6B6"/>
<path d="M311.503 221.986L311.293 212.817L315.232 212.962L321.591 204.486C321.905 204.067 322.346 203.759 322.848 203.607C323.35 203.455 323.888 203.467 324.384 203.641C324.879 203.814 325.305 204.141 325.6 204.573C325.896 205.005 326.044 205.52 326.025 206.042L325.621 216.933L321.655 218.668L325.524 219.544L325.372 223.65L311.503 221.986Z" fill="#2F3948"/>
<path d="M191.153 222.491L261.14 224.257C261.14 224.257 291.363 225.994 298.454 221.404L305.932 220.465L306.337 209.535C306.337 209.535 301.764 209.569 299.135 208.35C296.506 207.131 298.333 205.639 295.827 207.106C293.32 208.572 293.585 208.749 291.647 208.075C289.709 207.401 200.839 193.922 200.839 193.922L191.153 222.491Z" fill="#2F3948"/>
<path d="M283.378 217.748L287.448 213.694L273.669 196.145L267.662 202.129L283.378 217.748Z" fill="#FFB6B6"/>
<path d="M279.259 214.221L285.372 207.358L288.161 210.13L298.616 208.22C299.133 208.126 299.666 208.198 300.138 208.426C300.61 208.655 300.997 209.028 301.241 209.49C301.485 209.952 301.574 210.481 301.496 210.997C301.417 211.514 301.174 211.992 300.803 212.361L293.063 220.073L288.97 218.66L291.208 221.921L288.289 224.828L279.259 214.221Z" fill="#2F3948"/>
<path d="M163.541 184.351L164.237 200.445C165.056 219.391 186.024 230.858 202.283 220.966C202.583 220.783 202.884 220.594 203.185 220.399C203.185 220.399 209.349 218.752 209.162 216.143C208.975 213.535 210.481 212.265 211.813 212.977C213.146 213.688 230.594 189.048 230.594 189.048C230.594 189.048 266.845 207.042 274.842 211.278C274.842 211.278 282.361 199.579 281.816 199.702C281.27 199.825 236.969 168.97 236.969 168.97C236.969 168.97 229.752 161.702 220.799 166.501C220.613 167.206 220.772 167.231 220.772 167.231L191.198 191.21L187.019 183.313L163.541 184.351Z" fill="#2F3948"/>
<path d="M191.425 164.231C191.369 164.975 191.263 165.714 191.107 166.443C190.894 167.499 190.551 168.524 190.085 169.496C190.085 169.496 190.085 170.581 187.998 174.215C185.911 177.849 188.519 176.292 190.085 178.991C191.65 181.686 190.085 180.445 188.347 182.179C187.847 182.683 187.492 183.312 187.318 184C187.145 184.687 187.16 185.408 187.361 186.088C187.361 186.088 164.947 186.104 160.774 184.546C156.6 182.989 155.65 174.215 159.391 173.348C163.127 172.481 158.259 171.619 156.062 169.62C153.866 167.622 158.259 164.351 158.259 164.351C158.259 164.351 156.448 161.241 156.6 150.801C156.621 149.841 156.71 148.883 156.866 147.935C157.167 146.147 157.619 144.388 158.217 142.676C159.041 140.306 160.021 137.993 161.149 135.75C161.754 134.53 162.375 133.367 162.97 132.298C163.064 132.132 163.153 131.971 163.247 131.81C164.379 129.816 165.412 128.186 166.095 127.143C166.622 126.333 166.94 125.876 166.94 125.876L170.739 119.303L183.417 125.217L182.697 134.889L184.883 142.183L185.89 145.542L186.667 148.132L187.867 152.145C187.867 152.145 187.538 152.161 187.93 152.696C189.732 155.08 190.9 157.878 191.326 160.831C191.476 161.958 191.51 163.098 191.425 164.231Z" fill="#FFA500"/>
<path d="M228.039 165.274L227.801 165.197L197.456 155.474L208.638 118.971C208.861 118.244 209.246 117.577 209.766 117.02C210.285 116.463 210.925 116.03 211.637 115.755C212.348 115.48 213.114 115.369 213.875 115.431C214.636 115.493 215.373 115.726 216.031 116.112L235.422 127.512C236.957 128.414 238.125 129.823 238.721 131.495C239.318 133.166 239.305 134.993 238.686 136.656L228.039 165.274Z" fill="#2F3948"/>
<path d="M228.162 167.594L197.573 157.793L208.755 121.29C208.978 120.563 209.363 119.896 209.883 119.339C210.402 118.782 211.042 118.349 211.754 118.074C212.466 117.799 213.231 117.688 213.992 117.75C214.753 117.812 215.49 118.045 216.148 118.431L236.465 128.525C239.517 130.319 239.446 134.962 238.029 138.772L228.162 167.594Z" fill="#FFA500"/>
<path d="M225.1 170.236C224.395 170.632 223.616 170.877 222.811 170.957C222.006 171.037 221.194 170.949 220.425 170.699L200.873 164.434C199.373 163.946 198.124 162.894 197.393 161.503C196.662 160.111 196.507 158.49 196.96 156.986L206.763 124.987C206.958 124.347 207.281 123.753 207.71 123.24C208.14 122.726 208.668 122.303 209.264 121.995C209.86 121.687 210.512 121.5 211.182 121.447C211.851 121.393 212.525 121.472 213.163 121.681L233.424 128.301C234.39 128.616 235.282 129.121 236.048 129.785C236.814 130.449 237.439 131.259 237.885 132.168C238.331 133.076 238.59 134.064 238.646 135.074C238.701 136.084 238.553 137.094 238.21 138.046L227.73 167.121C227.259 168.441 226.325 169.547 225.1 170.236Z" fill="#3F3D56"/>
<path d="M182.7 119.416C190.434 119.416 196.704 113.177 196.704 105.481C196.704 97.7851 190.434 91.5463 182.7 91.5463C174.966 91.5463 168.696 97.7851 168.696 105.481C168.696 113.177 174.966 119.416 182.7 119.416Z" fill="#FFB6B6"/>
<path d="M135.346 119.626C136.631 122.104 138.738 124.064 141.31 125.173C142.336 125.639 143.416 125.979 144.524 126.186C144.837 124.949 145.339 123.768 146.011 122.682C145.787 123.906 145.787 125.159 146.011 126.383C147.7 126.52 149.399 126.311 151.003 125.766C152.578 125.233 154.006 124.342 155.175 123.164C156.344 121.986 157.22 120.553 157.735 118.979C158.851 115.286 157.649 111.341 157.555 107.485C157.457 103.629 159.297 99.0174 163.144 98.5403C166.073 98.1764 165.711 98.459 167.816 100.518C164.872 103.773 172.05 118.188 175.902 117.551C178.079 117.191 179.682 115.471 180.113 115.531C182.318 120.905 175.684 128.527 180.946 131.03L180.555 130.516C177.801 125.988 185.951 118.341 183.196 113.814C182.429 112.547 181.63 111.062 182.105 109.661C182.556 108.329 184.84 107.907 185.321 109.12C184.538 106.341 186.724 103.079 189.628 102.795C192.208 102.542 192.059 103.274 194.519 103.941C194.833 102.887 195.286 101.878 195.866 100.942C195.669 102.01 195.645 103.103 195.794 104.179C196.681 104.284 197.578 104.095 198.346 103.641C200.618 102.286 200.685 98.7887 199.125 96.6601C197.562 94.5311 194.944 93.4799 192.418 92.6846C192.394 87.3689 178.02 84.8242 175.377 89.7663C175.105 85.7648 170.495 83.0692 166.524 83.749C162.553 84.4287 159.42 87.5971 157.51 91.1287C155.601 94.6574 154.653 98.6086 153.255 102.367C151.857 106.126 149.858 109.874 146.511 112.104C143.164 114.331 138.189 114.534 135.395 111.647C134.757 112.879 134.421 114.244 134.412 115.63C134.404 117.017 134.724 118.385 135.346 119.626Z" fill="#2F3948"/>
<path d="M149.715 183.348C150.005 183.118 150.319 182.919 150.652 182.757C156.013 180.103 172.681 173.212 185.715 173.495C210.792 174.039 242.707 201.579 235.279 220.073C229.628 234.145 201.53 242.151 181.019 235.748C152.285 226.777 140.944 190.307 149.715 183.348Z" fill="#3F3D56"/>
<path d="M45.6071 284.728C37.4127 283.19 30.1592 246.455 46.2814 228.363C51.8051 222.165 58.6952 219.467 67.8603 216.956C120.611 202.505 160.846 216.278 166.253 219.64C171.647 222.995 181.105 273.547 169.011 280.702C162.207 284.728 148.72 286.741 142.038 282.044C132.205 275.133 148.709 257.206 141.363 245.139C133.027 231.445 89.1319 226.833 67.1248 240.442C43.6455 254.961 92.0754 293.451 45.6071 284.728Z" fill="#F2F2F2"/>
<path d="M100.393 222.271H69.0881C61.3601 214.902 55.8346 207.799 60.2584 201.903C60.2584 200.209 60.9349 198.583 62.1392 197.385C63.3435 196.187 64.9769 195.513 66.68 195.513H102.802C104.505 195.513 106.138 196.187 107.342 197.385C108.547 198.583 109.223 200.209 109.223 201.903C110.908 208.621 107.898 215.411 100.393 222.271Z" fill="#CCCCCC"/>
<path d="M94.7717 187.469C94.4746 187.483 94.1806 187.405 93.9293 187.247C93.6781 187.089 93.4819 186.857 93.3671 186.584C93.2524 186.311 93.2248 186.01 93.2881 185.721C93.3513 185.432 93.5023 185.169 93.7207 184.968L93.82 184.575C93.8069 184.543 93.7938 184.512 93.7805 184.481C93.4813 183.777 92.9799 183.178 92.3393 182.757C91.6987 182.336 90.9474 182.113 90.1799 182.116C89.4124 182.119 88.6628 182.348 88.0253 182.773C87.3879 183.198 86.8909 183.802 86.597 184.507C85.422 187.323 83.9262 190.143 83.5579 193.121C83.3956 194.437 83.4641 195.771 83.7601 197.063C81.0006 191.074 79.5676 184.563 79.5584 177.974C79.5578 176.32 79.6501 174.668 79.8349 173.025C79.9877 171.678 80.1995 170.34 80.4706 169.012C81.9496 161.807 85.1252 155.054 89.7366 149.307C91.9685 148.095 93.7734 146.232 94.9082 143.968C95.3193 143.154 95.6099 142.285 95.7709 141.388C95.5191 141.421 94.8216 137.606 95.0114 137.372C94.6606 136.842 94.0326 136.579 93.6494 136.062C91.7436 133.49 89.1179 133.939 87.7472 137.433C84.819 138.904 84.7906 141.343 86.5874 143.688C87.7304 145.181 87.8875 147.2 88.8905 148.797C88.7873 148.929 88.68 149.056 88.5768 149.188C86.6905 151.601 85.0465 154.193 83.6684 156.925C84.0035 153.864 83.6035 150.767 82.5012 147.89C81.3841 145.208 79.2902 142.95 77.4462 140.631C75.2314 137.847 70.6895 139.062 70.2993 142.592C70.2955 142.626 70.2918 142.66 70.2883 142.694C70.5621 142.848 70.8302 143.011 71.0926 143.184C71.4221 143.403 71.6775 143.716 71.8252 144.082C71.9729 144.448 72.006 144.85 71.9203 145.235C71.8346 145.62 71.634 145.97 71.3447 146.24C71.0555 146.51 70.6912 146.686 70.2995 146.746L70.2594 146.752C70.3569 147.734 70.5294 148.708 70.7753 149.664C68.4097 158.767 73.5168 162.083 80.809 162.232C80.97 162.314 81.1269 162.396 81.2878 162.474C79.9032 166.379 79.0346 170.446 78.7041 174.573C78.5169 177.008 78.5279 179.455 78.7371 181.888L78.7247 181.802C78.1963 179.096 76.7458 176.654 74.6179 174.89C71.4575 172.306 66.9925 171.355 63.583 169.278C63.2206 169.047 62.7993 168.923 62.3687 168.922C61.9381 168.921 61.5162 169.043 61.1527 169.272C60.7892 169.502 60.4993 169.831 60.3173 170.219C60.1352 170.607 60.0685 171.039 60.125 171.464C60.1296 171.494 60.1343 171.524 60.139 171.555C60.6472 171.761 61.1421 171.998 61.6207 172.265C61.8946 172.419 62.1627 172.582 62.425 172.755C62.7546 172.974 63.0099 173.287 63.1576 173.653C63.3053 174.019 63.3385 174.421 63.2527 174.806C63.167 175.191 62.9664 175.541 62.6772 175.811C62.388 176.08 62.0236 176.257 61.6319 176.317L61.5918 176.323C61.5629 176.327 61.5381 176.331 61.5093 176.335C62.3777 178.399 63.5966 180.298 65.1125 181.949C66.5916 189.896 72.9445 190.65 79.74 188.336H79.7442C80.4898 191.56 81.5701 194.698 82.9677 197.7H94.4831C94.5244 197.573 94.5616 197.441 94.5987 197.314C93.5328 197.381 92.4627 197.317 91.4123 197.125C92.2667 196.082 93.1211 195.03 93.9754 193.987C93.9945 193.968 94.0124 193.947 94.0291 193.926C94.4625 193.392 94.9 192.862 95.3334 192.328L95.3336 192.327C95.3567 190.691 95.1676 189.058 94.7717 187.469Z" fill="#CCCCCC"/>
<path d="M134.049 220.602C134.24 221.156 134.602 221.634 135.084 221.97C135.565 222.306 136.141 222.481 136.729 222.47L148.214 222.176C148.806 222.165 149.378 221.963 149.846 221.601C150.313 221.239 150.65 220.736 150.806 220.167L152.431 202.875C153.008 203.135 153.636 203.263 154.269 203.251C155.379 203.223 156.433 202.757 157.198 201.956C157.964 201.156 158.378 200.085 158.35 198.98C158.323 197.875 157.855 196.826 157.05 196.064C156.245 195.303 155.169 194.89 154.058 194.918C153.805 194.917 153.553 194.943 153.306 194.996C153.037 194.706 152.71 194.476 152.346 194.32C151.982 194.164 151.589 194.085 151.193 194.089L133.527 194.543C133.381 194.548 133.235 194.566 133.091 194.597C132.704 194.668 132.336 194.822 132.014 195.047C131.691 195.272 131.42 195.563 131.22 195.901C131.02 196.239 130.895 196.615 130.853 197.005C130.812 197.395 130.854 197.79 130.979 198.162L134.049 220.602ZM152.765 201.701L153.921 197.58C154.053 197.104 154.056 196.602 153.93 196.124C153.986 196.124 154.036 196.098 154.092 196.098C154.885 196.082 155.651 196.379 156.224 196.924C156.797 197.47 157.129 198.219 157.148 199.008C157.166 199.797 156.87 200.561 156.323 201.133C155.777 201.705 155.025 202.037 154.232 202.058C153.719 202.074 153.212 201.951 152.765 201.701Z" fill="#CCCCCC"/>
<path d="M133.091 194.597C133.467 196.738 137.699 198.243 142.787 197.982C147.465 197.767 151.291 196.132 151.992 194.195C151.732 194.119 151.463 194.083 151.192 194.089L133.527 194.543C133.38 194.548 133.234 194.566 133.091 194.597Z" fill="white"/>
<path d="M0.615047 285.539L387.385 285.697C387.548 285.697 387.704 285.633 387.82 285.518C387.935 285.403 388 285.247 388 285.085C388 284.923 387.935 284.767 387.82 284.652C387.704 284.538 387.548 284.473 387.385 284.473L0.615047 284.315C0.451926 284.315 0.295487 284.38 0.180143 284.494C0.0647985 284.609 0 284.765 0 284.927C0 285.089 0.0647985 285.245 0.180143 285.36C0.295487 285.475 0.451926 285.539 0.615047 285.539Z" fill="#CACACA"/>
<path d="M217.542 148.76C216.491 148.798 215.495 149.243 214.768 150.001C214.041 150.758 213.64 151.768 213.649 152.815C213.655 153.028 213.678 153.24 213.718 153.449L201.58 160.58L203.049 167.982L218.616 156.424C219.474 156.19 220.23 155.68 220.766 154.973C221.302 154.266 221.588 153.403 221.579 152.517C221.569 152.014 221.46 151.517 221.257 151.055C221.054 150.593 220.762 150.176 220.397 149.827C220.032 149.478 219.601 149.203 219.129 149.02C218.658 148.836 218.155 148.747 217.648 148.757C217.613 148.757 217.578 148.758 217.542 148.76Z" fill="#FFB6B6"/>
<path d="M207.599 165.76C207.274 165.327 207.135 165.146 207.061 165.195C206.871 165.309 207.054 166.839 205.717 169.504C203.835 173.249 184.102 178.984 184.102 178.984L181.673 174.558L170.986 155.108L167.303 139.518C167.174 138.975 167.111 138.418 167.116 137.859C170.401 135.56 173.888 133.562 177.536 131.891C178.994 132.714 180.105 134.031 180.667 135.602L188.023 156.126L190.958 164.321C190.958 164.321 196.136 160.636 198.014 161.313C199.89 161.993 200.422 161.039 199.197 157.984C197.971 154.93 199.811 158.074 201.952 158.274C204.097 158.477 201.952 158.274 202.965 156.978C203.978 155.682 210.53 154.952 210.53 154.952L210.669 155.242L213.208 160.438L213.935 161.931C213.935 161.931 211.243 164.837 210.594 165.416C209.941 166 209.74 165.959 210.059 166.624C210.375 167.286 208.727 167.256 207.599 165.76Z" fill="#FFA500"/>
</g>
<defs>
<clipPath id="clip0_6_1374">
<rect width="388" height="286" fill="white"/>
</clipPath>
</defs>
</svg>
