<svg width="387" height="287" viewBox="0 0 387 287" fill="none" xmlns="http://www.w3.org/2000/svg">
<g clip-path="url(#clip0_6_1414)">
<path d="M332.726 265.741C332.726 277.481 270.393 287 193.5 287C116.607 287 54.2744 277.481 54.2744 265.741C54.2744 257.429 85.5193 250.228 131.055 246.735C149.833 245.291 171.049 244.481 193.5 244.481C202.729 244.481 211.748 244.619 220.469 244.879C284.455 246.799 332.726 255.408 332.726 265.741Z" fill="#3F3D56"/>
<path opacity="0.1" d="M175.802 270.465C205.125 270.465 228.896 267.557 228.896 263.969C228.896 260.382 205.125 257.473 175.802 257.473C146.478 257.473 122.707 260.382 122.707 263.969C122.707 267.557 146.478 270.465 175.802 270.465Z" fill="black"/>
<path d="M175.212 268.103C202.906 268.103 225.357 244.308 225.357 214.955C225.357 185.602 202.906 161.807 175.212 161.807C147.518 161.807 125.067 185.602 125.067 214.955C125.067 244.308 147.518 268.103 175.212 268.103Z" fill="#3F3D56"/>
<path d="M191.14 246.844H159.283V275.189H191.14V246.844Z" fill="#FFA500"/>
<path d="M231.832 253.93L230.076 263.924L241.491 265.741L248.954 261.198L248.515 253.93H231.832Z" fill="#575A89"/>
<path d="M173.323 68.7634C173.323 68.7634 172.464 79.1189 170.318 79.5691C168.171 80.0193 175.04 98.0288 175.04 98.0288H185.343L193.5 95.7776L189.636 85.8724C189.636 85.8724 184.485 78.6686 188.348 72.8156C192.212 66.9625 173.323 68.7634 173.323 68.7634Z" fill="#A0616A"/>
<path opacity="0.1" d="M173.323 68.7634C173.323 68.7634 172.464 79.1189 170.318 79.5691C168.171 80.0193 175.04 98.0288 175.04 98.0288H185.343L193.5 95.7776L189.636 85.8724C189.636 85.8724 184.485 78.6686 188.348 72.8156C192.212 66.9625 173.323 68.7634 173.323 68.7634Z" fill="black"/>
<path d="M150.981 147.055C150.981 147.055 139.44 169.344 148.761 173.802C158.083 178.26 160.302 177.814 160.302 179.152C160.302 180.489 158.526 180.043 159.414 182.272C160.302 184.501 157.639 193.417 160.302 198.766C162.965 204.116 162.077 208.128 162.077 208.128C162.077 208.128 162.077 208.574 162.965 210.357C163.853 212.14 164.297 213.477 163.853 214.369C163.409 215.26 160.746 221.056 163.409 222.393C166.072 223.73 179.832 224.622 181.163 222.393C182.495 220.164 179.832 218.827 181.163 217.489C182.495 216.152 183.383 215.706 182.495 214.815C181.607 213.923 180.72 202.778 180.72 202.778C180.72 202.778 182.939 189.85 182.051 188.067C181.163 186.284 179.832 184.501 180.72 183.164C181.607 181.826 182.495 182.272 182.939 180.489C183.383 178.706 184.271 174.694 184.271 174.694L189.153 174.248L200.693 176.477C200.693 176.477 213.565 190.742 227.769 195.2C227.769 195.2 231.764 199.212 233.095 199.212C234.427 199.212 234.427 199.212 233.983 200.104C233.539 200.995 232.208 200.995 233.095 201.887C233.983 202.778 235.315 201.441 234.427 202.778C233.539 204.116 232.652 204.116 233.539 205.007C234.427 205.899 233.095 210.803 233.095 211.248C233.095 211.694 229.101 253.598 230.432 254.49C231.764 255.381 250.406 258.056 251.738 254.49C253.069 250.924 250.85 246.466 250.85 246.466C250.85 246.466 257.508 192.971 255.733 189.405C253.957 185.838 247.743 169.79 214.453 159.537C214.453 159.537 205.132 157.754 205.132 156.416C205.132 155.079 204.244 146.609 202.469 146.163C200.693 145.717 190.485 145.272 190.485 145.272L177.613 149.284L159.858 146.163L150.981 147.055Z" fill="#2F3948"/>
<path d="M166.829 222.268L164.66 230.714C164.66 230.714 162.925 244.321 165.094 247.605C166.798 250.185 169.84 253.344 175.482 253.898C177.063 254.055 178.646 253.624 179.97 252.675C181.293 251.727 182.278 250.318 182.761 248.682C182.826 248.486 182.866 248.282 182.881 248.074C182.881 247.136 181.579 235.875 181.579 235.875L179.41 224.145L178.977 220.86L166.829 222.268Z" fill="#2F3948"/>
<path d="M232.424 260.744C232.424 260.744 230.231 258.339 229.793 260.744C229.354 263.149 227.6 273.251 230.67 273.732C233.739 274.213 263.117 279.023 266.186 277.099C269.255 275.175 274.955 272.289 271.448 270.846C267.94 269.403 257.855 265.073 257.855 265.073C257.855 265.073 252.155 256.896 251.278 256.415C250.401 255.934 245.578 256.896 243.385 258.82C241.193 260.744 232.424 260.744 232.424 260.744Z" fill="#2F3948"/>
<path d="M184.061 77.9506C191.88 77.9506 198.219 71.6052 198.219 63.7778C198.219 55.9503 191.88 49.6049 184.061 49.6049C176.241 49.6049 169.902 55.9503 169.902 63.7778C169.902 71.6052 176.241 77.9506 184.061 77.9506Z" fill="#A0616A"/>
<path d="M182.333 94.6748L177.109 88.8399L171.318 77.1702C171.318 77.1702 167.096 75.8236 166.225 78.0678C165.354 80.312 149.681 87.4934 149.681 87.4934C149.681 87.4934 153.599 125.196 151.858 128.786C150.116 132.377 147.069 146.74 149.681 148.087C152.293 149.433 164.483 148.087 168.402 149.882C172.32 151.677 183.639 151.677 186.687 149.433C189.735 147.189 190.605 145.393 193.653 146.74C196.247 147.886 202.313 108.696 204.059 97.0173C204.206 96.0364 204.084 95.0327 203.706 94.1197C203.328 93.2067 202.71 92.4209 201.922 91.8513C198.016 89.0264 190.98 84.1584 189.735 84.8004C187.993 85.6981 182.333 94.6748 182.333 94.6748Z" fill="#575A89"/>
<path d="M201.437 93.3045C202.459 93.5701 203.379 94.1543 204.072 94.9788C204.766 95.8032 205.2 96.8284 205.316 97.9167L208.838 130.85C208.838 130.85 200.13 150.302 195.776 137.183C191.423 124.065 201.437 93.3045 201.437 93.3045Z" fill="#575A89"/>
<path d="M200.817 133.955L210.835 131.099C210.835 131.099 212.656 144.429 214.478 144.429C216.299 144.429 208.103 152.047 204.005 151.095C199.907 150.142 193.987 146.81 193.532 144.429C193.077 142.049 197.63 132.051 197.63 132.051L200.817 133.955Z" fill="#575A89"/>
<path d="M174.129 70.8642C175.059 68.7192 174.898 66.2172 175.667 64.0035C176.079 62.8181 176.748 61.7484 177.621 60.8778C178.494 60.0072 179.548 59.3594 180.7 58.985C181.853 58.6105 183.072 58.5196 184.264 58.7192C185.455 58.9188 186.586 59.4037 187.569 60.1358C188.559 60.8735 189.551 61.9099 190.759 61.7691C192.06 61.6174 193.221 60.1003 194.417 60.6563C195.743 61.2726 195.385 63.756 196.728 64.3297C197.435 64.6316 198.271 64.1667 198.679 63.4917C199.035 62.7824 199.23 61.9964 199.247 61.1953C199.432 59.227 199.599 57.1439 198.783 55.3598C198.439 54.7551 198.14 54.1241 197.887 53.4723C197.744 52.8636 197.687 52.2364 197.717 51.6105C197.709 49.297 197.548 46.8839 196.434 44.8847C195.198 42.6662 192.913 41.2477 190.529 40.6287C188.145 40.0097 185.647 40.1046 183.2 40.3212C179.153 40.6792 174.934 41.4466 171.746 44.0754C171.313 44.4062 170.94 44.8157 170.645 45.2843C170.365 45.841 170.168 46.4386 170.059 47.0571C169.369 49.9904 168.336 52.8234 166.982 55.4918C166.331 56.623 165.798 57.8246 165.394 59.0755C165.056 60.3466 165.079 61.7952 165.787 62.8877C166.363 63.7772 167.284 64.2513 168.008 64.9785C168.725 65.6991 169.06 67.0849 169.854 67.6305C170.548 68.1069 171.378 67.7706 172.086 68.2755C172.994 68.9237 173.059 70.3449 174.129 70.8642Z" fill="#2F3948"/>
<path d="M185.241 102.015L186.56 99.2099C186.56 99.2099 205.901 105.287 209.857 110.898C209.857 110.898 219.527 104.352 224.802 105.287L230.077 106.222L213.813 121.65L193.153 119.78L185.241 102.015Z" fill="#CCCCCC"/>
<path d="M183.532 99.2099L165.183 124.648L191.587 137.59C191.587 137.59 194.056 138.929 195.955 137.59L213.517 129.557L230.076 105.904L213.517 114.383C213.517 114.383 211.727 110.813 208.146 112.598L183.532 99.2099Z" fill="#FFA500"/>
<path d="M212.229 145.272L215.765 135.665C215.765 135.665 223.721 125.144 219.301 120.112C214.881 115.08 210.019 134.75 210.019 134.75L212.229 145.272Z" fill="#A0616A"/>
<path d="M171.082 142.909L178.987 136.742C178.987 136.742 191.264 132.008 189.846 125.675C188.428 119.342 174.349 133.146 174.349 133.146L171.082 142.909Z" fill="#A0616A"/>
<path opacity="0.1" d="M151.246 98.6049H150.792C150.792 98.6049 143.763 90.3547 142.403 101.504C141.042 112.653 136.508 149.667 148.298 151.005C160.088 152.343 168.478 145.431 168.478 145.431C168.478 145.431 177.094 132.498 173.919 132.498C172.384 132.498 168.206 131.819 164.396 132.052C160.332 132.3 156.68 133.426 156.914 132.275C157.368 130.045 163.943 101.727 151.246 98.6049Z" fill="black"/>
<path d="M151.522 88.3119L149.727 87.3992C149.727 87.3992 142.548 88.7683 141.202 100.178C139.856 111.587 135.369 149.467 147.035 150.836C158.701 152.205 174.406 149.01 174.406 149.01C174.406 149.01 177.547 131.668 174.406 131.668C171.265 131.668 155.112 133.95 155.56 131.668C156.009 129.386 164.086 91.5066 151.522 88.3119Z" fill="#575A89"/>
<path d="M205.299 140.064L210.358 132.28L213.558 145.13L205.299 148.815V140.064Z" fill="#575A89"/>
<path d="M109.181 40.2446C118.002 40.2446 125.153 33.0863 125.153 24.256C125.153 15.4258 118.002 8.26749 109.181 8.26749C100.361 8.26749 93.21 15.4258 93.21 24.256C93.21 33.0863 100.361 40.2446 109.181 40.2446Z" fill="#CCCCCC"/>
<path d="M92.1323 111.021H54.2744V148.919H92.1323V111.021Z" fill="#CCCCCC"/>
<path d="M275.197 38.9753L284.779 55.5898L294.361 72.2042H275.197H256.033L265.615 55.5898L275.197 38.9753Z" fill="#CCCCCC"/>
<path d="M347.882 185.708C347.738 190.16 346.655 193.729 344.633 196.414C342.61 199.099 340.207 200.442 337.424 200.442C335.157 200.442 333.171 199.128 331.464 196.5C329.757 193.872 328.903 189.829 328.903 184.372C328.903 183.166 328.932 182.017 328.989 180.926C329.046 179.835 329.118 178.801 329.204 177.824L330.711 163.65H320.769C319.048 181.572 317.635 192.235 316.53 195.638C315.426 199.042 313.554 200.744 310.914 200.744C309.723 200.714 308.586 200.238 307.73 199.408C307.233 198.968 306.84 198.422 306.58 197.811C306.319 197.2 306.198 196.539 306.223 195.875C306.223 194.555 307.263 192.709 309.343 190.339C311.423 187.97 312.578 185.808 312.808 183.855L315.39 163.65H311.216C310.039 163.657 308.881 163.945 307.837 164.49C306.877 164.931 306.041 165.605 305.406 166.45L303.555 169.207H302.049C303.454 164.842 305.183 161.561 307.235 159.363C309.286 157.166 311.645 156.067 314.314 156.067H347.194V163.65H336.09C335.746 167.096 335.481 170.543 335.294 173.99C335.107 177.436 335.014 180.897 335.014 184.372C335.014 186.728 335.56 188.638 336.65 190.102C337.74 191.567 339.103 192.3 340.738 192.3C341.742 192.3 342.796 191.89 343.901 191.072C344.426 190.703 344.865 190.226 345.188 189.672C345.511 189.118 345.711 188.5 345.773 187.862C345.859 187.231 345.924 186.735 345.967 186.376C346.01 186.017 346.032 185.794 346.032 185.708L347.882 185.708Z" fill="#FFA500"/>
<path opacity="0.1" d="M347.882 185.708C347.738 190.16 346.655 193.729 344.633 196.414C342.61 199.099 340.207 200.442 337.424 200.442C335.157 200.442 333.171 199.128 331.464 196.5C329.757 193.872 328.903 189.829 328.903 184.372C328.903 183.166 328.932 182.017 328.989 180.926C329.046 179.835 329.118 178.801 329.204 177.824L330.711 163.65H320.769C319.048 181.572 317.635 192.235 316.53 195.638C315.426 199.042 313.554 200.744 310.914 200.744C309.723 200.714 308.586 200.238 307.73 199.408C307.233 198.968 306.84 198.422 306.58 197.811C306.319 197.2 306.198 196.539 306.223 195.875C306.223 194.555 307.263 192.709 309.343 190.339C311.423 187.97 312.578 185.808 312.808 183.855L315.39 163.65H311.216C310.039 163.657 308.881 163.945 307.837 164.49C306.877 164.931 306.041 165.605 305.406 166.45L303.555 169.207H302.049C303.454 164.842 305.183 161.561 307.235 159.363C309.286 157.166 311.645 156.067 314.314 156.067H347.194V163.65H336.09C335.746 167.096 335.481 170.543 335.294 173.99C335.107 177.436 335.014 180.897 335.014 184.372C335.014 186.728 335.56 188.638 336.65 190.102C337.74 191.567 339.103 192.3 340.738 192.3C341.742 192.3 342.796 191.89 343.901 191.072C344.426 190.703 344.865 190.226 345.188 189.672C345.511 189.118 345.711 188.5 345.773 187.862C345.859 187.231 345.924 186.735 345.967 186.376C346.01 186.017 346.032 185.794 346.032 185.708L347.882 185.708Z" fill="black"/>
<path d="M347.882 184.361C347.738 188.813 346.655 192.382 344.633 195.067C342.61 197.752 340.207 199.095 337.424 199.095C335.157 199.095 333.171 197.781 331.464 195.153C329.757 192.525 328.903 188.482 328.903 183.025C328.903 181.819 328.932 180.67 328.989 179.579C329.046 178.487 329.118 177.453 329.204 176.477L330.711 162.303H320.769C319.048 180.225 317.635 190.888 316.53 194.291C315.426 197.695 313.554 199.396 310.914 199.397C309.723 199.367 308.586 198.891 307.73 198.061C307.233 197.62 306.84 197.075 306.58 196.464C306.319 195.853 306.198 195.192 306.223 194.528C306.223 193.208 307.263 191.362 309.343 188.992C311.423 186.623 312.578 184.461 312.808 182.508L315.39 162.303H311.216C310.039 162.31 308.881 162.598 307.837 163.143C306.877 163.584 306.041 164.258 305.406 165.103L303.555 167.86H302.049C303.454 163.495 305.183 160.213 307.235 158.016C309.286 155.819 311.645 154.72 314.314 154.72H347.194V162.303H336.09C335.746 165.749 335.481 169.196 335.294 172.642C335.107 176.089 335.014 179.55 335.014 183.025C335.014 185.381 335.56 187.291 336.65 188.755C337.74 190.22 339.103 190.952 340.738 190.952C341.742 190.952 342.796 190.543 343.901 189.724C344.426 189.356 344.865 188.879 345.188 188.325C345.511 187.771 345.711 187.153 345.773 186.515C345.859 185.883 345.924 185.388 345.967 185.029C346.01 184.67 346.032 184.447 346.032 184.361H347.882Z" fill="#FFA500"/>
</g>
<defs>
<clipPath id="clip0_6_1414">
<rect width="387" height="287" fill="white"/>
</clipPath>
</defs>
</svg>
