<svg width="163" height="131" viewBox="0 0 163 131" fill="none" xmlns="http://www.w3.org/2000/svg">
<path d="M92.859 115.893C91.7319 114.319 90.2061 113.168 88.2879 112.737C86.6153 112.362 84.8954 112.426 83.1951 112.439L61.696 112.604C59.8547 112.618 58.0893 114.208 58.1749 116.114C58.2598 118.004 59.7223 119.639 61.696 119.624C67.9937 119.575 74.2915 119.527 80.5892 119.479C82.0739 119.467 83.5595 119.441 85.0443 119.445C85.3777 119.446 85.7098 119.464 86.0429 119.468C86.1236 119.469 86.1818 119.468 86.223 119.466C86.2333 119.469 86.242 119.472 86.2554 119.476C86.4292 119.523 86.6074 119.556 86.7823 119.601C86.721 119.603 86.8956 119.712 86.9833 119.749C86.9953 119.772 87.021 119.814 87.0639 119.879C87.1238 119.991 87.3009 120.331 87.3083 120.32C87.5745 120.991 87.7941 121.68 87.9656 122.381C88.3748 123.926 88.4647 124.25 88.5236 125.7C88.598 127.532 90.0899 129.297 92.0447 129.21C93.8886 129.128 95.6456 127.665 95.5658 125.7C95.4313 122.389 94.8482 118.669 92.859 115.893Z" fill="#E6E6E6"/>
<path d="M62.9589 123.813C62.5551 121.374 62.159 118.933 61.7474 116.495C61.3297 114.022 60.4766 111.757 58.5458 110.134C58.0299 109.7 57.495 109.295 56.9578 108.892C56.7689 108.75 56.5803 108.608 56.3937 108.463C56.3825 108.454 56.3754 108.449 56.3657 108.441C56.3452 108.424 56.3206 108.403 56.2875 108.375C55.4828 107.696 54.7052 106.987 53.9645 106.233C53.3068 105.564 52.6778 104.866 52.0775 104.139C51.9275 103.958 51.7794 103.775 51.6333 103.59C51.6081 103.558 51.4727 103.384 51.3836 103.27C51.3006 103.156 51.149 102.95 51.1235 102.914C50.9528 102.674 50.7851 102.431 50.6204 102.186C49.4989 100.511 48.5278 98.7405 47.7184 96.8955C47.6381 96.7126 47.5597 96.5285 47.4832 96.3434C47.4627 96.2869 47.4362 96.2143 47.4009 96.1177C47.2378 95.6706 47.075 95.224 46.9259 94.7715C46.609 93.8105 46.3365 92.8354 46.1086 91.846C45.9958 91.3575 45.8944 90.8665 45.8041 90.373C45.7576 90.1192 45.7141 89.8649 45.6736 89.6101C45.6669 89.5678 45.6274 89.2928 45.6041 89.1375C45.5869 88.9814 45.5548 88.705 45.5505 88.6623C45.5248 88.4054 45.5019 88.1483 45.4819 87.8909C45.4369 87.3118 45.4064 86.7317 45.3906 86.1506C45.3635 85.1179 45.382 84.0853 45.4462 83.0528C45.4827 82.4726 45.5348 81.894 45.5988 81.3164C45.6027 81.2809 45.6057 81.2527 45.6085 81.2273C45.6123 81.2015 45.6169 81.1722 45.6222 81.1357C45.6696 80.8165 45.7195 80.4978 45.7752 80.1801C45.9864 78.9736 46.2611 77.7791 46.5981 76.6015C46.7577 76.0445 46.931 75.492 47.1181 74.9441C47.2015 74.7008 47.2875 74.4585 47.3762 74.2171C47.3704 74.2327 47.6364 73.5556 47.6399 73.5328C48.6951 71.0476 50.4211 68.782 50.4235 65.9589C50.4251 64.0475 48.8028 62.2165 46.9023 62.3048C45.9548 62.3404 45.0581 62.7412 44.4013 63.4229C43.7445 64.1045 43.3787 65.0137 43.3812 65.9589C43.3812 66.0018 43.381 66.0384 43.3809 66.074C43.3632 66.1335 43.3484 66.1831 43.335 66.227C43.1293 66.6728 42.8772 67.0964 42.6513 67.531C42.0328 68.7208 41.5048 69.9495 41.0033 71.1963C40.1824 73.2267 39.5539 75.3292 39.1263 77.4764C38.1968 82.181 38.1247 87.0139 38.9133 91.744C40.2786 100.039 44.7807 107.979 51.0398 113.316C51.583 113.779 52.1394 114.227 52.7011 114.666C52.9335 114.847 53.1679 115.025 53.4034 115.202C53.5147 115.286 53.9759 115.648 53.7731 115.473C54.2093 115.844 54.393 116.031 54.505 116.304C54.5213 116.367 54.5434 116.453 54.5734 116.57C54.6524 116.878 54.7274 117.185 54.7897 117.498C55.3345 120.229 55.7132 123.007 56.1682 125.756C56.4811 127.645 58.8139 128.874 60.4997 128.308C62.4618 127.649 63.2941 125.837 62.9589 123.813Z" fill="#E6E6E6"/>
<path d="M93.2139 130.897C91.7352 130.901 90.3153 130.32 89.2657 129.282C88.2161 128.243 87.6226 126.832 87.6154 125.358V121.355C83.4101 121.824 69.01 121.715 64.8823 121.054V125.198C64.8712 126.671 64.2764 128.08 63.2277 129.118C62.179 130.155 60.7613 130.737 59.2837 130.737C57.806 130.737 56.3883 130.155 55.3396 129.118C54.2909 128.08 53.6961 126.671 53.6851 125.198V117.062C48.0943 113.966 43.4337 109.439 40.1841 103.948C36.9345 98.4572 35.2137 92.2015 35.1992 85.8265C35.1992 74.8955 40.169 64.6984 48.8344 57.8499C54.4686 53.382 61.314 50.695 68.4916 50.1341C69.4658 50.0579 70.446 50.0194 71.405 50.0194C74.7836 50.0194 90.027 50.5396 93.8516 51.6364L102.573 43.0106C102.701 42.882 102.864 42.7945 103.043 42.7591C103.221 42.7236 103.406 42.7419 103.574 42.8117C103.743 42.8787 103.888 42.9952 103.989 43.1458C104.091 43.2964 104.144 43.4741 104.143 43.6555V45.027L105.841 43.3506C105.969 43.2219 106.132 43.1342 106.31 43.0987C106.489 43.0632 106.674 43.0815 106.841 43.1513C107.011 43.2184 107.155 43.3349 107.257 43.4855C107.359 43.6362 107.412 43.8139 107.411 43.9955V59.3214C111.787 63.2539 115.122 68.2016 117.121 73.7262C119.12 79.2508 119.721 85.1816 118.87 90.993C118.02 96.8045 115.745 102.317 112.246 107.042C108.747 111.768 104.133 115.56 98.8125 118.082V125.358C98.8052 126.832 98.2118 128.243 97.1622 129.282C96.1126 130.32 94.6927 130.901 93.2139 130.897ZM88.0555 120.857V125.358C88.0666 126.715 88.615 128.012 89.5812 128.967C90.5474 129.923 91.8531 130.459 93.2139 130.459C94.5748 130.459 95.8805 129.923 96.8467 128.967C97.8129 128.012 98.3612 126.715 98.3723 125.358V117.805L98.498 117.746C104.468 114.922 109.536 110.504 113.139 104.983C117.731 97.9369 119.641 89.4854 118.523 81.1578C117.404 72.8302 113.332 65.1767 107.044 59.5826L106.971 59.5171V43.9955C106.972 43.9012 106.945 43.8086 106.892 43.7304C106.839 43.6521 106.763 43.5918 106.675 43.5577C106.588 43.5203 106.491 43.5102 106.397 43.5288C106.304 43.5473 106.218 43.5935 106.151 43.6615L103.702 46.079V43.6555C103.704 43.5612 103.677 43.4687 103.624 43.3904C103.571 43.3121 103.495 43.2519 103.407 43.2177C103.319 43.1804 103.222 43.1704 103.128 43.1891C103.035 43.2077 102.949 43.2542 102.882 43.3223L93.9747 52.1328L93.8481 52.0933C90.2926 50.984 74.8093 50.4581 71.405 50.4581C70.4574 50.4581 69.4888 50.4962 68.5262 50.5715C61.4358 51.1256 54.6736 53.78 49.1079 58.1936C40.5484 64.9584 35.6393 75.0302 35.6393 85.8265C35.654 92.1451 37.3656 98.3446 40.5964 103.781C43.8272 109.217 48.4594 113.692 54.0117 116.741L54.1252 116.803V125.198C54.1365 126.555 54.685 127.852 55.6512 128.807C56.6173 129.762 57.9229 130.298 59.2837 130.298C60.6444 130.298 61.95 129.762 62.9161 128.807C63.8823 127.852 64.4308 126.555 64.4421 125.198V120.529L64.7029 120.578C68.4123 121.273 84.032 121.383 87.8068 120.89L88.0555 120.857Z" fill="#3F3D56"/>
<path d="M63.3791 26.1303L39.0085 33.4308C38.2334 33.664 37.5828 34.1943 37.1996 34.9053C36.8165 35.6163 36.7322 36.4498 36.9652 37.2227C37.1982 37.9956 37.7295 38.6448 38.4423 39.0275C39.1552 39.4102 39.9913 39.4952 40.7669 39.2638L62.0938 32.8736L62.5406 32.7398C62.631 30.4449 63.2556 28.2024 64.3649 26.1895C64.2257 26.1271 64.0769 26.0885 63.9248 26.0755C63.741 26.0577 63.5556 26.0764 63.3791 26.1303Z" fill="#E6E6E6"/>
<path d="M40.3461 40.8203C40.0226 40.8195 39.7076 40.7174 39.4454 40.5284C39.1833 40.3394 38.9874 40.0731 38.8854 39.7671L37.3614 35.1832C37.2978 34.9918 37.2726 34.7897 37.2873 34.5886C37.302 34.3875 37.3563 34.1912 37.4471 34.011C37.5379 33.8308 37.6634 33.6702 37.8165 33.5383C37.9696 33.4065 38.1472 33.306 38.3392 33.2425L58.1744 26.6901C58.3664 26.6266 58.5691 26.6015 58.7708 26.6161C58.9726 26.6307 59.1695 26.6848 59.3503 26.7753C59.5311 26.8658 59.6922 26.9909 59.8245 27.1434C59.9568 27.296 60.0576 27.473 60.1213 27.6645L61.6452 32.2483C61.772 32.6253 61.7466 33.0368 61.5743 33.3954C61.4021 33.7541 61.0965 34.0318 60.7224 34.1698C60.7041 34.1767 60.6856 34.1831 60.6669 34.1892L40.8323 40.7415C40.6755 40.7936 40.5114 40.8202 40.3461 40.8203Z" fill="#2F2E41"/>
<path d="M77.4927 17.9897C73.4894 17.9913 69.6438 19.5455 66.7699 22.3235C63.8959 25.1015 62.2191 28.8852 62.0944 32.8737C62.09 33.0295 62.0879 33.1874 62.0879 33.3454C62.0879 36.3824 62.9914 39.3513 64.6841 41.8765C66.3768 44.4017 68.7827 46.3699 71.5976 47.5321C74.4124 48.6944 77.5098 48.9985 80.4981 48.406C83.4863 47.8135 86.2312 46.351 88.3856 44.2034C90.54 42.0559 92.0072 39.3198 92.6016 36.3411C93.196 33.3624 92.8909 30.2749 91.725 27.469C90.559 24.6632 88.5845 22.2649 86.0512 20.5776C83.5179 18.8903 80.5395 17.9897 77.4927 17.9897ZM77.4927 48.2623C73.5251 48.2582 69.7212 46.6852 66.9157 43.8887C64.1101 41.0921 62.5322 37.3003 62.528 33.3454C62.528 33.1414 62.5324 32.9395 62.5412 32.7399C62.6604 29.8179 63.6386 26.9953 65.3542 24.623C67.0698 22.2508 69.4472 20.4335 72.1906 19.3972C74.934 18.361 77.9225 18.1514 80.7844 18.7946C83.6464 19.4378 86.2555 20.9054 88.2874 23.0149C90.3193 25.1244 91.6843 27.7827 92.2127 30.6593C92.7411 33.5358 92.4096 36.5038 91.2594 39.1941C90.1091 41.8843 88.1909 44.1782 85.7433 45.7905C83.2956 47.4028 80.4265 48.2624 77.4927 48.2623Z" fill="#3F3D56"/>
<path d="M90.476 33.3453C90.476 36.7779 89.108 40.0699 86.673 42.4971C84.2381 44.9243 80.9355 46.2879 77.4919 46.2879C74.0483 46.2879 70.7458 44.9243 68.3108 42.4971C65.8758 40.0699 64.5078 36.7779 64.5078 33.3453C64.5078 32.935 64.5276 32.5314 64.565 32.1322C64.8779 28.8194 66.4588 25.7539 68.9794 23.5724C71.5 21.3909 74.7666 20.2609 78.1011 20.417C81.4355 20.5731 84.5816 22.0033 86.8859 24.4108C89.1903 26.8182 90.476 30.0178 90.476 33.3453Z" fill="#E6E6E6"/>
<path d="M81.3587 34.2052C81.0439 33.7928 80.6299 33.4661 80.155 33.2554C79.5691 33.0093 78.9641 32.8112 78.3459 32.6631V29.1401C79.2961 29.2829 80.1873 29.6879 80.9185 30.3093L81.636 28.7847C81.2234 28.4183 80.7497 28.1265 80.2363 27.9226C79.6673 27.6929 79.07 27.5402 78.4604 27.4685V25.6829H76.7989V27.4861C76.1573 27.5579 75.5384 27.765 74.9833 28.0937C74.4819 28.3895 74.0598 28.802 73.7531 29.2958C73.4604 29.7778 73.3087 30.3317 73.3152 30.895C73.2866 31.5055 73.464 32.1079 73.8191 32.6061C74.146 33.0374 74.5777 33.3786 75.0735 33.5976C75.6687 33.851 76.2841 34.0542 76.9133 34.2052V37.5813C75.7921 37.497 74.7237 37.0721 73.8521 36.3638L73.1348 37.8906C73.6221 38.2922 74.1762 38.6055 74.7721 38.8163C75.425 39.0492 76.107 39.191 76.7989 39.2375V41.0078H78.4604V39.2046C79.3833 39.1041 80.2487 38.7085 80.9274 38.077C81.2262 37.7913 81.4623 37.4469 81.6207 37.0655C81.779 36.6841 81.8562 36.2741 81.8473 35.8615C81.8749 35.2704 81.7028 34.6873 81.3587 34.2052ZM76.9133 32.2902C76.5086 32.1678 76.1323 31.9665 75.8063 31.6979C75.6772 31.5833 75.5751 31.4417 75.5074 31.2832C75.4397 31.1246 75.408 30.9531 75.4147 30.7809C75.4027 30.3902 75.5467 30.0107 75.8151 29.7258C76.1128 29.4268 76.4968 29.2282 76.9133 29.1576V32.2902ZM79.3891 36.9583C79.1084 37.2453 78.7428 37.4352 78.3459 37.5001V34.5957C78.7253 34.6972 79.0801 34.874 79.3891 35.1156C79.5063 35.2153 79.5993 35.3401 79.6614 35.4806C79.7235 35.6211 79.753 35.7738 79.7478 35.9273C79.7631 36.3037 79.635 36.6721 79.3891 36.9583Z" fill="#FFA500"/>
<path d="M41.053 59.3982C40.7128 59.3976 40.3823 59.2852 40.1128 59.0783C39.8432 58.8715 39.6496 58.5817 39.5621 58.254L38.7324 55.1237C38.6285 54.7302 38.6855 54.3118 38.8907 53.9601C39.096 53.6084 39.4328 53.3523 39.8272 53.2478L66.0025 46.3532C66.3974 46.2505 66.8172 46.3078 67.1698 46.5128C67.5225 46.7177 67.7794 47.0536 67.8843 47.4468L68.5871 50.0989L68.4554 50.1091C61.7423 50.6294 55.3192 53.0556 49.946 57.1005L49.9078 57.119L41.4439 59.3477C41.3163 59.3812 41.185 59.3982 41.053 59.3982Z" fill="#2F2E41"/>
<path d="M36.7184 74.8604C33.648 74.4083 30.7114 73.3015 28.1089 71.6155C26.8195 70.7809 25.6259 69.8078 24.5495 68.7137C23.487 67.6335 22.4706 66.4057 21.9443 64.9671C21.438 63.6361 21.4641 62.1621 22.0172 60.8498C22.5628 59.5454 23.605 58.51 24.9153 57.9705C26.2334 57.4465 27.8259 57.3904 29.1088 57.9643C29.7201 58.2314 30.2491 58.6558 30.6414 59.194C30.8238 59.4421 30.9588 59.7216 31.0398 60.0184C31.1149 60.2874 31.1218 60.5708 31.0597 60.843C30.9845 61.1149 30.8518 61.3675 30.6706 61.584C30.4894 61.8005 30.2639 61.9759 30.0091 62.0985C29.4484 62.3852 28.8409 62.5699 28.2151 62.6439C27.5856 62.7294 26.6815 62.8073 26.1755 62.3036C26.0713 62.204 25.9894 62.0836 25.935 61.9503C25.897 61.8482 25.884 61.7385 25.8971 61.6304C25.8897 61.6781 25.9276 61.5268 25.9254 61.5328C25.9174 61.5552 25.8828 61.6097 25.9321 61.526C25.9474 61.4984 25.9646 61.4718 25.9834 61.4463C25.9666 61.4679 25.9299 61.5039 25.9955 61.4421C26.0497 61.383 26.1194 61.3401 26.1967 61.3183C26.2272 61.3095 26.2581 61.3024 26.2886 61.2941C26.3662 61.273 26.2112 61.2953 26.2906 61.2927C26.3213 61.2918 26.3523 61.2925 26.3829 61.2911C26.4608 61.2877 26.306 61.27 26.3807 61.2887C26.4096 61.2959 26.4384 61.303 26.4669 61.312C26.529 61.3315 26.423 61.2666 26.465 61.3152C26.5143 61.3721 26.4133 61.2598 26.4693 61.3149C26.4972 61.3422 26.5235 61.3711 26.548 61.4014C26.6452 61.497 26.7762 61.5507 26.9128 61.5507C27.0493 61.5507 27.1804 61.497 27.2775 61.4014C27.3714 61.3035 27.4238 61.1733 27.4238 61.0378C27.4238 60.9024 27.3714 60.7722 27.2775 60.6742C26.7689 60.0457 25.7641 60.201 25.2495 60.7322C24.5933 61.4097 24.8532 62.4835 25.4915 63.0746C26.2142 63.7438 27.2376 63.7904 28.1672 63.6781C28.9528 63.6031 29.7184 63.3874 30.4271 63.0415C31.1314 62.6966 31.6822 62.1034 31.9729 61.3769C32.1041 60.9892 32.1513 60.5781 32.1112 60.1709C32.0711 59.7636 31.9447 59.3695 31.7404 59.0146C30.9197 57.4766 29.2203 56.688 27.5405 56.5515C26.6757 56.4839 25.806 56.588 24.9818 56.8577C24.1576 57.1275 23.3953 57.5574 22.7389 58.1227C21.4737 59.2581 20.6946 60.8347 20.5628 62.5265C20.4162 64.2806 21.0989 65.984 22.0943 67.3996C23.1364 68.8379 24.3799 70.1198 25.7869 71.2063C28.5377 73.3954 31.7643 74.9122 35.2085 75.6355C35.6182 75.7198 36.0301 75.792 36.4442 75.8521C36.5759 75.8839 36.7149 75.8645 36.8328 75.7978C36.9507 75.7311 37.0386 75.6221 37.0787 75.493C37.1141 75.3615 37.0961 75.2214 37.0287 75.1031C36.9613 74.9847 36.8498 74.8975 36.7184 74.8604Z" fill="#3F3D56"/>
<path d="M85.8778 52.5123C81.3791 52.449 76.8946 52.5628 72.4243 52.8537C70.8963 52.9532 69.5742 53.4915 69.5742 54.3963C69.5742 55.1528 70.8857 56.0391 72.4243 55.9389C76.8923 55.6481 81.3768 55.5343 85.8778 55.5975C89.5472 55.6491 89.545 52.5639 85.8778 52.5123Z" fill="#CCCCCC"/>
<path d="M79.2293 55.4447C78.7431 55.4447 67.3223 55.4266 67.3223 53.8541C67.3223 52.2816 78.7431 52.2635 79.2293 52.2635C79.7155 52.2635 91.1363 52.2817 91.1363 53.8541C91.1363 55.4266 79.7155 55.4447 79.2293 55.4447ZM67.7689 53.8541C68.0814 54.3308 72.2795 55.006 79.2293 55.006C86.1791 55.006 90.3771 54.3308 90.6897 53.8541C90.3772 53.3774 86.1791 52.7023 79.2293 52.7023C72.2795 52.7023 68.0814 53.3774 67.7689 53.8541Z" fill="#3F3D56"/>
<path d="M115.464 96.7843C117.993 96.7143 121.139 96.6268 123.563 94.8617C124.285 94.3146 124.878 93.6167 125.301 92.817C125.724 92.0174 125.966 91.1352 126.011 90.2324C126.06 88.8384 125.555 87.6216 124.588 86.8072C123.322 85.7408 121.473 85.4906 119.481 86.0743L121.545 71.0372L120.029 70.8302L117.603 88.5082L118.868 87.9294C120.335 87.2587 122.349 86.9173 123.6 87.9715C123.908 88.2471 124.147 88.5896 124.3 88.9724C124.453 89.3552 124.515 89.7681 124.482 90.1788C124.445 90.8507 124.263 91.5068 123.949 92.1024C123.635 92.698 123.195 93.2192 122.661 93.6304C120.775 95.0039 118.266 95.1811 115.422 95.2604L115.464 96.7843Z" fill="#3F3D56"/>
<path d="M111.275 72.334H103.037V73.8586H111.275V72.334Z" fill="#3F3D56"/>
<path d="M44.7808 66.4104C44.4141 66.4092 44.0598 66.278 43.7814 66.0401C43.503 65.8022 43.3187 65.4733 43.2614 65.1123L42.7586 61.9136C42.6958 61.5113 42.7956 61.1006 43.0363 60.7716C43.2769 60.4427 43.6386 60.2223 44.0421 60.1588L70.7874 55.9815C71.191 55.919 71.603 56.0185 71.933 56.2583C72.263 56.4982 72.4841 56.8587 72.5478 57.2609L73.0505 60.4597C73.1134 60.862 73.0135 61.2727 72.7729 61.6017C72.5323 61.9306 72.1706 62.151 71.7671 62.2145L45.0218 66.3917C44.942 66.4041 44.8615 66.4104 44.7808 66.4104Z" fill="#2F2E41"/>
<path d="M33.7118 28.9244C39.9104 28.9244 44.9354 23.9155 44.9354 17.7367C44.9354 11.558 39.9104 6.54907 33.7118 6.54907C27.5132 6.54907 22.4883 11.558 22.4883 17.7367C22.4883 23.9155 27.5132 28.9244 33.7118 28.9244Z" fill="#E6E6E6"/>
<path d="M40.0667 20.6315C40.4254 20.5064 40.7531 20.3063 41.0278 20.0445C41.2095 19.8578 41.348 19.6338 41.4337 19.3881C41.5194 19.1424 41.5502 18.8811 41.524 18.6223C41.5087 18.4379 41.4509 18.2594 41.3549 18.101C41.259 17.9425 41.1277 17.8083 40.9711 17.7088C40.5649 17.4598 40.0282 17.4693 39.4863 17.7197L39.4238 13.3525L38.9837 13.3588L39.0572 18.4928L39.3922 18.2738C39.7807 18.0202 40.3389 17.8363 40.7405 18.0826C40.8398 18.1478 40.9227 18.2349 40.9828 18.3372C41.0428 18.4396 41.0784 18.5543 41.0867 18.6726C41.1052 18.8653 41.0818 19.0598 41.0182 19.2428C40.9545 19.4258 40.8521 19.5929 40.7178 19.7329C40.2407 20.2048 39.5345 20.3629 38.7285 20.5075L38.8065 20.9393C39.235 20.8744 39.6567 20.7714 40.0667 20.6315Z" fill="#2F2E41"/>
<path d="M43.9551 13.0461L41.6113 13.3999L41.6772 13.8336L44.021 13.4798L43.9551 13.0461Z" fill="#2F2E41"/>
<path d="M36.5586 14.1625L34.2148 14.5164L34.2807 14.9501L36.6245 14.5963L36.5586 14.1625Z" fill="#2F2E41"/>
<path d="M41.13 66.2148C40.7264 66.2139 40.3326 66.0906 40.001 65.8611C39.6694 65.6317 39.4158 65.307 39.2739 64.9304L31.5356 44.2729C30.5897 41.7394 30.6907 38.9354 31.8164 36.476C32.9421 34.0166 35.0005 32.1028 37.54 31.1543L43.8321 28.8123C44.0754 28.7212 44.3344 28.6788 44.5942 28.6878C44.854 28.6968 45.1094 28.7569 45.3458 28.8647C45.5816 28.9697 45.794 29.1205 45.9707 29.3083C46.1473 29.4961 46.2847 29.7171 46.3747 29.9584L60.7092 56.9369C60.8023 57.1802 60.8462 57.4394 60.8384 57.6997C60.8305 57.9599 60.7712 58.216 60.6636 58.4533C60.5561 58.6906 60.4026 58.9043 60.2119 59.0823C60.0212 59.2602 59.7971 59.3987 59.5524 59.4899L41.8222 66.0894C41.6009 66.1721 41.3664 66.2146 41.13 66.2148Z" fill="#2F2E41"/>
<path d="M41.9219 29.5228L56.1447 48.4817L46.5208 29.7218C46.4413 29.5029 46.3193 29.3018 46.1618 29.1299C46.0043 28.958 45.8144 28.8187 45.6029 28.72C45.3914 28.6213 45.1625 28.565 44.9292 28.5545C44.6959 28.544 44.4628 28.5794 44.2433 28.6588L41.9219 29.5228Z" fill="#E6E6E6"/>
<path d="M64.4425 43.9209L39.0476 42.2903C38.6473 42.2646 38.256 42.1606 37.896 41.9842C37.5361 41.8077 37.2145 41.5624 36.9497 41.262C36.6849 40.9617 36.482 40.6124 36.3527 40.2339C36.2233 39.8554 36.17 39.4553 36.1958 39.0563C36.2216 38.6572 36.3259 38.2672 36.5029 37.9084C36.6799 37.5496 36.9261 37.2291 37.2274 36.9651C37.5286 36.7011 37.8791 36.4989 38.2588 36.37C38.6385 36.241 39.0399 36.1879 39.4402 36.2136L64.8352 37.844C65.0227 37.856 65.2059 37.9048 65.3745 37.9874C65.5431 38.07 65.6937 38.1849 65.8177 38.3255C65.9417 38.4662 66.0367 38.6298 66.0973 38.807C66.1579 38.9843 66.1828 39.1717 66.1708 39.3586L65.962 42.5896C65.9376 42.967 65.7638 43.3193 65.4789 43.5689C65.1939 43.8186 64.8211 43.9452 64.4425 43.9209Z" fill="#E6E6E6"/>
<path d="M57.657 44.9662C57.6235 44.9662 57.5899 44.9652 57.5562 44.963L36.7032 43.6241C36.5013 43.6112 36.304 43.5587 36.1224 43.4697C35.9409 43.3808 35.7787 43.257 35.6451 43.1056C35.5116 42.9541 35.4093 42.7779 35.344 42.587C35.2788 42.3962 35.2519 42.1943 35.2649 41.9931L35.6215 36.4743C35.6345 36.273 35.6872 36.0763 35.7764 35.8953C35.8657 35.7144 35.9899 35.5527 36.1418 35.4196C36.2938 35.2865 36.4706 35.1845 36.6621 35.1195C36.8536 35.0545 37.056 35.0277 37.2579 35.0407L58.1108 36.3795C58.5183 36.4061 58.8986 36.5927 59.1683 36.8985C59.4379 37.2043 59.5749 37.6042 59.5491 38.0105L59.1925 43.5294C59.1729 43.8251 59.068 44.1089 58.8906 44.3467C58.7131 44.5845 58.4706 44.7662 58.1921 44.8699C58.0209 44.9337 57.8397 44.9664 57.657 44.9662Z" fill="#2F2E41"/>
<path d="M33.583 10.2971C35.0595 9.03134 37.087 10.1637 38.7803 9.96547C40.4002 9.77582 41.6794 8.32734 42.0062 6.78853C42.3874 4.99323 41.4526 3.19461 40.0747 2.07528C38.5656 0.849333 36.5641 0.497394 34.6675 0.724203C32.4937 0.984151 30.5057 1.99419 28.7219 3.21588C27.0001 4.35858 25.4167 5.69604 24.0033 7.20158C22.7376 8.59492 21.6653 10.2557 21.3229 12.1307C21.0117 13.8346 21.2493 15.7228 22.2598 17.1663C22.7957 17.9061 23.5137 18.4958 24.3448 18.8785C25.2113 19.3026 26.1356 19.6058 26.9751 20.0854C28.2444 20.8104 29.4781 22.3139 29.0804 23.8784C28.9952 24.2202 28.827 24.5358 28.5906 24.7976C28.3065 25.1118 27.7942 24.6965 28.079 24.3814C28.5792 23.8279 28.5595 23.0898 28.2929 22.429C27.9759 21.6844 27.4147 21.0691 26.701 20.6841C25.8223 20.1833 24.8521 19.8742 23.9515 19.418C23.0894 19.0013 22.3411 18.3832 21.7703 17.6162C20.6923 16.1229 20.3699 14.1796 20.6144 12.3819C20.8789 10.4364 21.8817 8.66862 23.1387 7.18718C24.5067 5.57497 26.1871 4.21027 27.9038 2.98427C29.7458 1.66876 31.7808 0.556595 34.0327 0.154342C35.9848 -0.19435 38.1006 0.0203267 39.8076 1.08071C41.401 2.07051 42.6228 3.77316 42.7443 5.67571C42.788 6.54136 42.5994 7.40296 42.1981 8.17185C41.7967 8.94074 41.1971 9.58914 40.4608 10.0503C39.7054 10.5009 38.8271 10.7038 37.9499 10.6302C37.012 10.5703 36.0733 10.2841 35.1294 10.3635C34.7023 10.3894 34.2953 10.5533 33.9701 10.8305C33.6475 11.107 33.263 10.5714 33.583 10.2971Z" fill="#2F2E41"/>
</svg>
